<svg width="26" height="26" viewBox="0 0 26 26" fill="none" xmlns="http://www.w3.org/2000/svg">
<path d="M19.5001 7.58333C18.8393 7.58333 18.2326 7.20417 17.9293 6.61917L17.1493 5.04833C16.6509 4.0625 15.3509 3.25 14.2459 3.25H11.7651C10.6493 3.25 9.34927 4.0625 8.85093 5.04833L8.07093 6.61917C7.7676 7.20417 7.16093 7.58333 6.5001 7.58333C4.14927 7.58333 2.28593 9.56583 2.4376 11.9058L3.00093 19.7708C3.13093 22.0025 4.33343 23.8333 7.32343 23.8333H18.6768C21.6668 23.8333 22.8584 22.0025 22.9993 19.7708L23.5626 11.9058C23.7143 9.56583 21.8509 7.58333 19.5001 7.58333ZM11.3751 7.85417H14.6251C15.0693 7.85417 15.4376 8.2225 15.4376 8.66667C15.4376 9.11083 15.0693 9.47917 14.6251 9.47917H11.3751C10.9309 9.47917 10.5626 9.11083 10.5626 8.66667C10.5626 8.2225 10.9309 7.85417 11.3751 7.85417ZM13.0001 19.63C10.9851 19.63 9.33843 17.9942 9.33843 15.9683C9.33843 13.9425 10.9743 12.3067 13.0001 12.3067C15.0259 12.3067 16.6618 13.9425 16.6618 15.9683C16.6618 17.9942 15.0151 19.63 13.0001 19.63Z" fill="#87D549"/>
</svg>
