<svg width="179" height="62" viewBox="0 0 179 62" fill="none" xmlns="http://www.w3.org/2000/svg">
<path d="M54.2696 0.200439H42.5439H16.8896C12.4638 0.200439 8.21932 1.96639 5.0898 5.10981C1.96029 8.25324 0.202148 12.5166 0.202148 16.9621L0.202148 39.311C0.202148 43.7565 1.96029 48.0198 5.0898 51.1633C8.21932 54.3067 12.4638 56.0727 16.8896 56.0727H22.4521C22.4521 57.5545 23.0382 58.9756 24.0814 60.0234C25.1245 61.0712 26.5394 61.6599 28.0146 61.6599H50.2646C51.7399 61.6599 53.1548 61.0712 54.1979 60.0234C55.2411 58.9756 55.8271 57.5545 55.8271 56.0727H122.577C122.577 57.5545 123.163 58.9756 124.206 60.0234C125.25 61.0712 126.664 61.6599 128.14 61.6599H150.39C151.865 61.6599 153.28 61.0712 154.323 60.0234C155.366 58.9756 155.952 57.5545 155.952 56.0727H161.515C165.94 56.0727 170.185 54.3067 173.314 51.1633C176.444 48.0198 178.202 43.7565 178.202 39.311V16.9621C178.202 12.5166 176.444 8.25324 173.314 5.10981C170.185 1.96639 165.94 0.200439 161.515 0.200439H135.86H124.135H54.2696ZM28.0146 33.7238C26.5394 33.7238 25.1245 33.1351 24.0814 32.0873C23.0382 31.0395 22.4521 29.6184 22.4521 28.1365C22.4521 26.6547 23.0382 25.2336 24.0814 24.1858C25.1245 23.138 26.5394 22.5493 28.0146 22.5493C29.4899 22.5493 30.9048 23.138 31.9479 24.1858C32.9911 25.2336 33.5771 26.6547 33.5771 28.1365C33.5771 29.6184 32.9911 31.0395 31.9479 32.0873C30.9048 33.1351 29.4899 33.7238 28.0146 33.7238ZM45.7135 28.1365C45.7135 26.6547 46.2996 25.2336 47.3427 24.1858C48.3859 23.138 49.8007 22.5493 51.276 22.5493C52.7513 22.5493 54.1661 23.138 55.2093 24.1858C56.2525 25.2336 56.8385 26.6547 56.8385 28.1365C56.8385 29.6184 56.2525 31.0395 55.2093 32.0873C54.1661 33.1351 52.7513 33.7238 51.276 33.7238C49.8007 33.7238 48.3859 33.1351 47.3427 32.0873C46.2996 31.0395 45.7135 29.6184 45.7135 28.1365ZM105.89 33.7238C104.414 33.7238 103 33.1351 101.956 32.0873C100.913 31.0395 100.327 29.6184 100.327 28.1365C100.327 26.6547 100.913 25.2336 101.956 24.1858C103 23.138 104.414 22.5493 105.89 22.5493C107.365 22.5493 108.78 23.138 109.823 24.1858C110.866 25.2336 111.452 26.6547 111.452 28.1365C111.452 29.6184 110.866 31.0395 109.823 32.0873C108.78 33.1351 107.365 33.7238 105.89 33.7238ZM122.577 28.1365C122.577 26.6547 123.163 25.2336 124.206 24.1858C125.25 23.138 126.664 22.5493 128.14 22.5493C129.615 22.5493 131.03 23.138 132.073 24.1858C133.116 25.2336 133.702 26.6547 133.702 28.1365C133.702 29.6184 133.116 31.0395 132.073 32.0873C131.03 33.1351 129.615 33.7238 128.14 33.7238C126.664 33.7238 125.25 33.1351 124.206 32.0873C123.163 31.0395 122.577 29.6184 122.577 28.1365ZM144.827 28.1365C144.827 26.6547 145.413 25.2336 146.456 24.1858C147.5 23.138 148.914 22.5493 150.39 22.5493C151.865 22.5493 153.28 23.138 154.323 24.1858C155.366 25.2336 155.952 26.6547 155.952 28.1365C155.952 29.6184 155.366 31.0395 154.323 32.0873C153.28 33.1351 151.865 33.7238 150.39 33.7238C148.914 33.7238 147.5 33.1351 146.456 32.0873C145.413 31.0395 144.827 29.6184 144.827 28.1365Z" fill="#5BC2FF"/>
</svg>
