<svg width="227" height="154" viewBox="0 0 227 154" fill="none" xmlns="http://www.w3.org/2000/svg">
<path fill-rule="evenodd" clip-rule="evenodd" d="M33.9613 120.315L33.9613 119.308C33.9613 116.741 31.5781 114.838 29.0752 115.407L3.1139 121.305C1.29256 121.718 0 123.337 0 125.205V130.047C0 132.03 1.45368 133.714 3.416 134.004L138.132 153.886C138.643 153.961 139.163 153.937 139.665 153.815L223.948 133.245C225.74 132.808 227 131.203 227 129.359V125.58C227 123.663 225.639 122.015 223.756 121.653L194.072 115.937C192.48 115.631 191.003 116.851 191.003 118.471C191.003 121.617 188.683 124.28 185.567 124.711L170.782 126.754C170.774 126.755 170.767 126.763 170.767 126.771C170.767 126.782 170.758 126.79 170.748 126.788L170.665 126.774C170.657 126.773 170.648 126.773 170.639 126.774L170.539 126.788C170.527 126.79 170.516 126.78 170.516 126.767C170.516 126.757 170.508 126.749 170.498 126.747L167.38 126.238C165.475 125.927 163.688 127.162 162.21 128.404C161.321 129.151 160.219 129.66 158.994 129.823L142.415 132.039L142.414 132.04C142.413 132.04 142.413 132.04 142.413 132.039C142.413 132.039 142.413 132.039 142.413 132.039L139.522 131.573C137.483 131.244 135.593 132.679 134.067 134.071C133.077 134.973 131.796 135.566 130.37 135.69L112.611 137.234C112.548 137.24 112.499 137.293 112.499 137.357C112.5 137.432 112.433 137.49 112.359 137.479L39.3276 126.545C36.2433 126.083 33.9613 123.434 33.9613 120.315Z" fill="#5BC2FF"/>
<path fill-rule="evenodd" clip-rule="evenodd" d="M188.277 15.3153C188.277 11.881 185.4 9.14746 181.97 9.32321L168.771 9.99951C168.766 9.99978 168.762 10.0043 168.762 10.0097C168.762 10.0151 168.758 10.0195 168.752 10.0199L111.232 14.6597C108.116 14.9111 105.715 17.5137 105.715 20.6403L105.715 106.567C105.715 109.507 107.846 112.015 110.748 112.488L168.745 121.958C168.755 121.96 168.762 121.968 168.762 121.978C168.762 121.989 168.772 121.998 168.784 121.997L168.878 121.984C168.886 121.983 168.895 121.983 168.903 121.984L168.981 121.997C168.991 121.999 169 121.991 169 121.981C169 121.973 169.006 121.966 169.014 121.965L183.098 120.019C186.066 119.608 188.277 117.071 188.277 114.075V15.3153Z" fill="#5BC2FF"/>
<path d="M160.281 61.8937C160.281 77.9713 151.331 92.5159 136.84 92.9881C122.463 93.4566 112.766 79.9562 112.766 63.8786C112.766 47.801 121.081 33.5737 137.473 32.7813C151.395 32.1084 160.281 45.8161 160.281 61.8937Z" fill="#393B44"/>
<rect x="176.406" y="21.7271" width="5.93939" height="16.1212" rx="2.96969" fill="#393B44"/>
<rect x="176.406" y="44.6362" width="5.93939" height="16.1212" rx="2.96969" fill="#393B44"/>
<rect x="176.406" y="67.5454" width="5.93939" height="16.1212" rx="2.96969" fill="#393B44"/>
<rect x="175.551" y="101.485" width="7.63636" height="7.63636" rx="3.81818" fill="#393B44"/>
<path fill-rule="evenodd" clip-rule="evenodd" d="M162.999 9.96875C162.999 6.65049 160.306 3.96232 156.988 3.96876L141.05 3.99971C141.023 3.99977 141 4.02236 141 4.05007C141.001 4.07597 140.981 4.09773 140.955 4.1002L78.4277 10.0914C75.3498 10.3863 73 12.972 73 16.064L73.0003 110.759C73.0003 113.704 75.1375 116.214 78.0447 116.683L142 127C142 127 142 127 142 127C142 127 142 127 142 127L157.794 124.889C160.774 124.491 162.999 121.948 162.999 118.942V9.96875Z" fill="#5BC2FF"/>
<path d="M132.478 61.614C132.478 79.1394 122.722 94.9938 106.926 95.5085C91.2548 96.0191 80.6836 81.303 80.6836 63.7776C80.6836 46.2521 89.7475 30.7436 107.616 29.8799C122.792 29.1464 132.478 44.0885 132.478 61.614Z" fill="#393B44"/>
<rect x="150.055" y="17.8303" width="6.47425" height="17.573" rx="3.23712" fill="#393B44"/>
<rect x="150.055" y="42.8025" width="6.47425" height="17.573" rx="3.23712" fill="#393B44"/>
<rect x="150.055" y="67.7747" width="6.47425" height="17.573" rx="3.23712" fill="#393B44"/>
<rect x="149.125" y="104.771" width="8.32403" height="8.32403" rx="4.16202" fill="#393B44"/>
<path fill-rule="evenodd" clip-rule="evenodd" d="M136 6.00002C136 2.68632 133.314 2.99599e-05 130 2.50726e-05L113 0C113 -1.66193e-10 113 9.13472e-05 113 0.00020403C113 0.000309097 113 0.000396717 113 0.000406842L44.1132 6.6699C41.0378 6.96765 38.6914 9.55223 38.6914 12.642L38.6917 115.823C38.6917 118.797 40.8708 121.323 43.8131 121.758L113 132C113 132 113 132 113 132C113 132 113 132 113 132L113.003 132L130.52 130.477C133.62 130.207 136 127.611 136 124.499V6.00002Z" fill="#5BC2FF"/>
<path d="M103 62.3391C103 81.2877 92.4523 98.4295 75.3733 98.9861C58.4296 99.5382 47 83.627 47 64.6784C47 45.7297 56.8 28.9619 76.12 28.028C92.5275 27.2349 103 43.3904 103 62.3391Z" fill="#393B44"/>
<rect x="122" y="15" width="7" height="19" rx="3.5" fill="#393B44"/>
<rect x="122" y="42" width="7" height="19" rx="3.5" fill="#393B44"/>
<rect x="122" y="69" width="7" height="19" rx="3.5" fill="#393B44"/>
<rect x="121" y="109" width="9" height="9" rx="4.5" fill="#393B44"/>
</svg>
