<svg width="246" height="100" viewBox="0 0 246 100" fill="none" xmlns="http://www.w3.org/2000/svg">
<path fill-rule="evenodd" clip-rule="evenodd" d="M227.982 6.43466L244.715 48.777C245.032 49.5812 245.195 50.4183 245.196 51.2603V91.082C245.196 93.3146 244.07 95.4557 242.065 97.0344C240.059 98.6131 237.34 99.5 234.504 99.5H10.8886C8.05285 99.5 5.33321 98.6131 3.328 97.0344C1.3228 95.4557 0.196289 93.3146 0.196289 91.082V51.3024C0.198011 50.4604 0.360201 49.6233 0.677444 48.8191L17.411 6.43466C18.0847 4.71655 19.4396 3.21343 21.2771 2.14549C23.1146 1.07755 25.3382 0.500894 27.6222 0.5H217.77C220.054 0.500894 222.278 1.07755 224.115 2.14549C225.953 3.21343 227.308 4.71655 227.982 6.43466ZM29.2122 82.6641C31.8695 82.6641 34.0237 80.5099 34.0237 77.8525V74.8487C34.0237 72.1913 31.8695 70.0371 29.2122 70.0371C26.5548 70.0371 24.4006 72.1913 24.4006 74.8487V77.8525C24.4006 80.5099 26.5548 82.6641 29.2122 82.6641ZM55.943 82.6641C58.6004 82.6641 60.7546 80.5099 60.7546 77.8525V74.8487C60.7546 72.1913 58.6004 70.0371 55.943 70.0371C53.2857 70.0371 51.1315 72.1913 51.1315 74.8487V77.8525C51.1315 80.5099 53.2857 82.6641 55.943 82.6641ZM82.6739 82.6641C85.3313 82.6641 87.4855 80.5099 87.4855 77.8525V74.8487C87.4855 72.1913 85.3313 70.0371 82.6739 70.0371C80.0166 70.0371 77.8624 72.1913 77.8624 74.8487V77.8525C77.8624 80.5099 80.0166 82.6641 82.6739 82.6641ZM109.331 82.6641C112.022 82.6641 114.198 80.4701 114.175 77.7786L114.15 74.8281C114.128 72.1756 111.971 70.0371 109.318 70.0371C106.65 70.0371 104.486 72.2005 104.486 74.8691V77.8196C104.486 80.4951 106.655 82.6641 109.331 82.6641ZM136.062 82.6641C138.753 82.6641 140.929 80.4701 140.906 77.7786L140.881 74.8281C140.858 72.1756 138.702 70.0371 136.049 70.0371C133.38 70.0371 131.217 72.2005 131.217 74.869V77.8197C131.217 80.4951 133.386 82.6641 136.062 82.6641ZM226.211 52.6914C227.839 52.6914 229.158 51.3723 229.158 49.7451C229.158 48.1179 227.839 46.7988 226.211 46.7988H19.1811C17.5539 46.7988 16.2348 48.1179 16.2348 49.7451C16.2348 51.3723 17.5539 52.6914 19.1811 52.6914H226.211ZM163.703 69.8594C160.992 69.8594 158.794 72.0574 158.794 74.7689V77.7546C158.794 80.4661 160.992 82.6641 163.703 82.6641C166.415 82.6641 168.613 80.4661 168.613 77.7546V74.7689C168.613 72.0574 166.415 69.8594 163.703 69.8594ZM184.171 74.7706C184.171 72.0582 186.37 69.8594 189.083 69.8594C191.795 69.8594 193.994 72.0582 193.994 74.7706V77.7529C193.994 80.4653 191.795 82.6641 189.083 82.6641C186.37 82.6641 184.171 80.4653 184.171 77.7529V74.7706ZM214.46 69.8594C211.747 69.8594 209.549 72.0582 209.549 74.7706V77.7529C209.549 80.4653 211.747 82.6641 214.46 82.6641C217.172 82.6641 219.371 80.4653 219.371 77.7529V74.7706C219.371 72.0582 217.172 69.8594 214.46 69.8594Z" fill="#5BC2FF"/>
</svg>
