<svg width="21" height="26" viewBox="0 0 21 26" fill="none" xmlns="http://www.w3.org/2000/svg">
<g clip-path="url(#clip0_3225_92602)">
<path d="M17.7188 5.68762C17.1737 5.68762 16.6408 5.85441 16.1875 6.16688C15.7342 6.47936 15.381 6.92349 15.1724 7.44312C14.9637 7.96274 14.9092 8.53453 15.0155 9.08616C15.1219 9.63779 15.3844 10.1445 15.7698 10.5422C16.1553 10.9399 16.6464 11.2108 17.1811 11.3205C17.7157 11.4302 18.2699 11.3739 18.7736 11.1587C19.2772 10.9434 19.7077 10.5789 20.0105 10.1113C20.3134 9.64362 20.475 9.09381 20.475 8.53137C20.475 7.77716 20.1847 7.05384 19.6678 6.52054C19.1509 5.98723 18.4498 5.68762 17.7188 5.68762ZM17.7188 9.75012C17.4852 9.75012 17.2568 9.67864 17.0625 9.54473C16.8683 9.41081 16.7169 9.22047 16.6275 8.99777C16.5381 8.77507 16.5147 8.53002 16.5602 8.29361C16.6058 8.05719 16.7183 7.84003 16.8835 7.66959C17.0487 7.49914 17.2592 7.38307 17.4883 7.33604C17.7175 7.28901 17.955 7.31315 18.1708 7.40539C18.3867 7.49764 18.5712 7.65385 18.701 7.85427C18.8308 8.05469 18.9 8.29033 18.9 8.53137C18.9 8.8546 18.7756 9.1646 18.5541 9.39316C18.3325 9.62172 18.0321 9.75012 17.7188 9.75012ZM9.71255 14.8364V4.06262C9.71255 3.20067 9.38067 2.37402 8.78993 1.76453C8.19919 1.15503 7.39798 0.812622 6.56255 0.812622C5.72712 0.812622 4.9259 1.15503 4.33516 1.76453C3.74442 2.37402 3.41255 3.20067 3.41255 4.06262V14.8364C2.44945 15.5283 1.72551 16.5193 1.34609 17.6651C0.966671 18.8109 0.951581 20.0517 1.30302 21.207C1.65445 22.3623 2.35407 23.3717 3.30004 24.0883C4.24602 24.8049 5.38897 25.1913 6.56255 25.1913C7.73613 25.1913 8.87908 24.8049 9.82505 24.0883C10.771 23.3717 11.4706 22.3623 11.8221 21.207C12.1735 20.0517 12.1584 18.8109 11.779 17.6651C11.3996 16.5193 10.6756 15.5283 9.71255 14.8364ZM8.13755 8.12512H4.98755V4.06262C4.98755 3.63165 5.15349 3.21832 5.44886 2.91357C5.74423 2.60883 6.14483 2.43762 6.56255 2.43762C6.98026 2.43762 7.38087 2.60883 7.67624 2.91357C7.97161 3.21832 8.13755 3.63165 8.13755 4.06262V8.12512Z" fill="#5BC2FF"/>
</g>
<defs>
<clipPath id="clip0_3225_92602">
<rect width="21" height="26" fill="white"/>
</clipPath>
</defs>
</svg>
