<svg width="1642" height="208" viewBox="0 0 1642 208" fill="none" xmlns="http://www.w3.org/2000/svg">
<rect x="1608" y="6.10352e-05" width="34" height="21" rx="10.5" fill="#87D549"/>
<path d="M3.237 51.1171C2.62167 51.1171 2.08 50.9871 1.612 50.7271C1.15267 50.4584 0.810333 50.0641 0.585 49.5441L0.988 49.0761C1.20467 49.5267 1.51233 49.8691 1.911 50.1031C2.30967 50.3284 2.75167 50.4411 3.237 50.4411C3.85233 50.4411 4.34633 50.2591 4.719 49.8951C5.10033 49.5311 5.291 49.0631 5.291 48.4911C5.291 47.9537 5.10467 47.5204 4.732 47.1911C4.35933 46.8531 3.887 46.6841 3.315 46.6841H2.535V46.0081H3.237C3.67033 46.0081 4.06467 45.8304 4.42 45.4751C4.76667 45.1284 4.94 44.6907 4.94 44.1621C4.94 43.6247 4.784 43.2087 4.472 42.9141C4.16867 42.6107 3.744 42.4591 3.198 42.4591C2.27067 42.4591 1.612 42.8751 1.222 43.7071L0.819 43.2781C1.001 42.8014 1.30433 42.4331 1.729 42.1731C2.16233 41.9131 2.66933 41.7831 3.25 41.7831C3.99533 41.7831 4.58033 41.9867 5.005 42.3941C5.43833 42.8014 5.655 43.3604 5.655 44.0711C5.655 44.5651 5.525 45.0114 5.265 45.4101C5.01367 45.8001 4.66267 46.0861 4.212 46.2681V46.3071C4.76667 46.3851 5.20433 46.6364 5.525 47.0611C5.84567 47.4857 6.006 47.9711 6.006 48.5171C6.006 49.3057 5.746 49.9384 5.226 50.4151C4.706 50.8831 4.043 51.1171 3.237 51.1171ZM8.66064 46.2681L9.21964 41.9001H13.1716V42.5761H9.80464L9.41464 45.5401C9.68331 45.4621 9.98231 45.4231 10.3116 45.4231C11.161 45.4231 11.85 45.6744 12.3786 46.1771C12.916 46.6884 13.1846 47.3557 13.1846 48.1791C13.1846 49.0717 12.9116 49.7824 12.3656 50.3111C11.811 50.8484 11.1436 51.1171 10.3636 51.1171C9.82631 51.1171 9.32364 50.9914 8.85564 50.7401C8.39631 50.4887 8.03664 50.1334 7.77664 49.6741L8.17964 49.1931C8.40497 49.5831 8.71697 49.8907 9.11564 50.1161C9.52297 50.3327 9.94331 50.4411 10.3766 50.4411C10.9746 50.4411 11.473 50.2331 11.8716 49.8171C12.2703 49.3924 12.4696 48.8551 12.4696 48.2051C12.4696 47.5724 12.2443 47.0567 11.7936 46.6581C11.3516 46.2421 10.7666 46.0341 10.0386 46.0341C9.52731 46.0341 9.06797 46.1121 8.66064 46.2681Z" fill="#8998AB"/>
<path d="M3.237 90.1171C2.62167 90.1171 2.08 89.9871 1.612 89.7271C1.15267 89.4584 0.810333 89.0641 0.585 88.5441L0.988 88.0761C1.20467 88.5267 1.51233 88.8691 1.911 89.1031C2.30967 89.3284 2.75167 89.4411 3.237 89.4411C3.85233 89.4411 4.34633 89.2591 4.719 88.8951C5.10033 88.5311 5.291 88.0631 5.291 87.4911C5.291 86.9537 5.10467 86.5204 4.732 86.1911C4.35933 85.8531 3.887 85.6841 3.315 85.6841H2.535V85.0081H3.237C3.67033 85.0081 4.06467 84.8304 4.42 84.4751C4.76667 84.1284 4.94 83.6907 4.94 83.1621C4.94 82.6247 4.784 82.2087 4.472 81.9141C4.16867 81.6107 3.744 81.4591 3.198 81.4591C2.27067 81.4591 1.612 81.8751 1.222 82.7071L0.819 82.2781C1.001 81.8014 1.30433 81.4331 1.729 81.1731C2.16233 80.9131 2.66933 80.7831 3.25 80.7831C3.99533 80.7831 4.58033 80.9867 5.005 81.3941C5.43833 81.8014 5.655 82.3604 5.655 83.0711C5.655 83.5651 5.525 84.0114 5.265 84.4101C5.01367 84.8001 4.66267 85.0861 4.212 85.2681V85.3071C4.76667 85.3851 5.20433 85.6364 5.525 86.0611C5.84567 86.4857 6.006 86.9711 6.006 87.5171C6.006 88.3057 5.746 88.9384 5.226 89.4151C4.706 89.8831 4.043 90.1171 3.237 90.1171ZM13.7826 85.4501C13.7826 86.8801 13.5486 88.0154 13.0806 88.8561C12.6213 89.6881 11.9063 90.1041 10.9356 90.1041C9.95631 90.1041 9.22831 89.6837 8.75164 88.8431C8.27497 88.0024 8.03664 86.8714 8.03664 85.4501C8.03664 84.0287 8.27064 82.8977 8.73864 82.0571C9.21531 81.2164 9.93897 80.7961 10.9096 80.7961C11.8803 80.7961 12.5996 81.2164 13.0676 82.0571C13.5443 82.8977 13.7826 84.0287 13.7826 85.4501ZM10.9356 89.4671C12.357 89.4671 13.0676 88.1281 13.0676 85.4501C13.0676 82.7721 12.3483 81.4331 10.9096 81.4331C9.47097 81.4331 8.75164 82.7721 8.75164 85.4501C8.75164 88.1281 9.47964 89.4671 10.9356 89.4671Z" fill="#8998AB"/>
<path d="M6.084 129H0.663V128.441L1.703 127.414C1.86767 127.249 2.23167 126.855 2.795 126.231C3.25433 125.702 3.62267 125.234 3.9 124.827C4.15133 124.472 4.394 124.03 4.628 123.501C4.85333 122.998 4.966 122.552 4.966 122.162C4.966 121.677 4.81 121.274 4.498 120.953C4.186 120.632 3.76133 120.472 3.224 120.472C2.76467 120.472 2.35733 120.619 2.002 120.914C1.64667 121.2 1.43 121.603 1.352 122.123L0.767 121.902C0.853667 121.252 1.13967 120.736 1.625 120.355C2.10167 119.982 2.64767 119.796 3.263 119.796C4.043 119.796 4.641 120.021 5.057 120.472C5.473 120.914 5.681 121.434 5.681 122.032C5.681 122.491 5.55533 123.02 5.304 123.618C5.07 124.164 4.78833 124.675 4.459 125.152C4.147 125.594 3.76133 126.071 3.302 126.582C2.82533 127.119 2.483 127.483 2.275 127.674C2.18833 127.761 2.054 127.891 1.872 128.064C1.69 128.229 1.58167 128.328 1.547 128.363H6.084V129ZM8.60986 124.268L9.16886 119.9H13.1209V120.576H9.75386L9.36386 123.54C9.63253 123.462 9.93153 123.423 10.2609 123.423C11.1102 123.423 11.7992 123.674 12.3279 124.177C12.8652 124.688 13.1339 125.356 13.1339 126.179C13.1339 127.072 12.8609 127.782 12.3149 128.311C11.7602 128.848 11.0929 129.117 10.3129 129.117C9.77553 129.117 9.27286 128.991 8.80486 128.74C8.34553 128.489 7.98586 128.133 7.72586 127.674L8.12886 127.193C8.35419 127.583 8.66619 127.891 9.06486 128.116C9.47219 128.333 9.89253 128.441 10.3259 128.441C10.9239 128.441 11.4222 128.233 11.8209 127.817C12.2195 127.392 12.4189 126.855 12.4189 126.205C12.4189 125.572 12.1935 125.057 11.7429 124.658C11.3009 124.242 10.7159 124.034 9.98786 124.034C9.47653 124.034 9.01719 124.112 8.60986 124.268Z" fill="#8998AB"/>
<path d="M6.084 168H0.663V167.441L1.703 166.414C1.86767 166.249 2.23167 165.855 2.795 165.231C3.25433 164.702 3.62267 164.234 3.9 163.827C4.15133 163.472 4.394 163.03 4.628 162.501C4.85333 161.998 4.966 161.552 4.966 161.162C4.966 160.677 4.81 160.274 4.498 159.953C4.186 159.632 3.76133 159.472 3.224 159.472C2.76467 159.472 2.35733 159.619 2.002 159.914C1.64667 160.2 1.43 160.603 1.352 161.123L0.767 160.902C0.853667 160.252 1.13967 159.736 1.625 159.355C2.10167 158.982 2.64767 158.796 3.263 158.796C4.043 158.796 4.641 159.021 5.057 159.472C5.473 159.914 5.681 160.434 5.681 161.032C5.681 161.491 5.55533 162.02 5.304 162.618C5.07 163.164 4.78833 163.675 4.459 164.152C4.147 164.594 3.76133 165.071 3.302 165.582C2.82533 166.119 2.483 166.483 2.275 166.674C2.18833 166.761 2.054 166.891 1.872 167.064C1.69 167.229 1.58167 167.328 1.547 167.363H6.084V168ZM13.7319 163.45C13.7319 164.88 13.4979 166.015 13.0299 166.856C12.5705 167.688 11.8555 168.104 10.8849 168.104C9.90553 168.104 9.17753 167.684 8.70086 166.843C8.22419 166.002 7.98586 164.871 7.98586 163.45C7.98586 162.029 8.21986 160.898 8.68786 160.057C9.16453 159.216 9.88819 158.796 10.8589 158.796C11.8295 158.796 12.5489 159.216 13.0169 160.057C13.4935 160.898 13.7319 162.029 13.7319 163.45ZM10.8849 167.467C12.3062 167.467 13.0169 166.128 13.0169 163.45C13.0169 160.772 12.2975 159.433 10.8589 159.433C9.42019 159.433 8.70086 160.772 8.70086 163.45C8.70086 166.128 9.42886 167.467 10.8849 167.467Z" fill="#8998AB"/>
<path d="M6.591 202.45C6.591 203.88 6.357 205.015 5.889 205.856C5.42967 206.688 4.71467 207.104 3.744 207.104C2.76467 207.104 2.03667 206.684 1.56 205.843C1.08333 205.002 0.845 203.871 0.845 202.45C0.845 201.029 1.079 199.898 1.547 199.057C2.02367 198.216 2.74733 197.796 3.718 197.796C4.68867 197.796 5.408 198.216 5.876 199.057C6.35267 199.898 6.591 201.029 6.591 202.45ZM3.744 206.467C5.16533 206.467 5.876 205.128 5.876 202.45C5.876 199.772 5.15667 198.433 3.718 198.433C2.27933 198.433 1.56 199.772 1.56 202.45C1.56 205.128 2.288 206.467 3.744 206.467Z" fill="#8998AB"/>
<path d="M37.084 15.0001H31.663V14.4411L32.703 13.4141C32.8677 13.2494 33.2317 12.8551 33.795 12.2311C34.2543 11.7024 34.6227 11.2344 34.9 10.8271C35.1513 10.4717 35.394 10.0297 35.628 9.50106C35.8533 8.99839 35.966 8.55206 35.966 8.16206C35.966 7.67673 35.81 7.27373 35.498 6.95306C35.186 6.63239 34.7613 6.47206 34.224 6.47206C33.7647 6.47206 33.3573 6.61939 33.002 6.91406C32.6467 7.20006 32.43 7.60306 32.352 8.12306L31.767 7.90206C31.8537 7.25206 32.1397 6.73639 32.625 6.35506C33.1017 5.98239 33.6477 5.79606 34.263 5.79606C35.043 5.79606 35.641 6.02139 36.057 6.47206C36.473 6.91406 36.681 7.43406 36.681 8.03206C36.681 8.49139 36.5553 9.02006 36.304 9.61806C36.07 10.1641 35.7883 10.6754 35.459 11.1521C35.147 11.5941 34.7613 12.0707 34.302 12.5821C33.8253 13.1194 33.483 13.4834 33.275 13.6741C33.1883 13.7607 33.054 13.8907 32.872 14.0641C32.69 14.2287 32.5817 14.3284 32.547 14.3631H37.084V15.0001ZM39.0899 8.01906L38.7259 7.47306L40.7929 5.82206H41.2609V15.0001H40.5849V6.81006L39.0899 8.01906Z" fill="#8998AB"/>
<path d="M106.084 15.0001H100.663V14.4411L101.703 13.4141C101.868 13.2494 102.232 12.8551 102.795 12.2311C103.254 11.7024 103.623 11.2344 103.9 10.8271C104.151 10.4717 104.394 10.0297 104.628 9.50106C104.853 8.99839 104.966 8.55206 104.966 8.16206C104.966 7.67673 104.81 7.27373 104.498 6.95306C104.186 6.63239 103.761 6.47206 103.224 6.47206C102.765 6.47206 102.357 6.61939 102.002 6.91406C101.647 7.20006 101.43 7.60306 101.352 8.12306L100.767 7.90206C100.854 7.25206 101.14 6.73639 101.625 6.35506C102.102 5.98239 102.648 5.79606 103.263 5.79606C104.043 5.79606 104.641 6.02139 105.057 6.47206C105.473 6.91406 105.681 7.43406 105.681 8.03206C105.681 8.49139 105.555 9.02006 105.304 9.61806C105.07 10.1641 104.788 10.6754 104.459 11.1521C104.147 11.5941 103.761 12.0707 103.302 12.5821C102.825 13.1194 102.483 13.4834 102.275 13.6741C102.188 13.7607 102.054 13.8907 101.872 14.0641C101.69 14.2287 101.582 14.3284 101.547 14.3631H106.084V15.0001ZM113.225 15.0001H107.804V14.4411L108.844 13.4141C109.009 13.2494 109.373 12.8551 109.936 12.2311C110.395 11.7024 110.764 11.2344 111.041 10.8271C111.292 10.4717 111.535 10.0297 111.769 9.50106C111.994 8.99839 112.107 8.55206 112.107 8.16206C112.107 7.67673 111.951 7.27373 111.639 6.95306C111.327 6.63239 110.902 6.47206 110.365 6.47206C109.906 6.47206 109.498 6.61939 109.143 6.91406C108.788 7.20006 108.571 7.60306 108.493 8.12306L107.908 7.90206C107.995 7.25206 108.281 6.73639 108.766 6.35506C109.243 5.98239 109.789 5.79606 110.404 5.79606C111.184 5.79606 111.782 6.02139 112.198 6.47206C112.614 6.91406 112.822 7.43406 112.822 8.03206C112.822 8.49139 112.696 9.02006 112.445 9.61806C112.211 10.1641 111.929 10.6754 111.6 11.1521C111.288 11.5941 110.902 12.0707 110.443 12.5821C109.966 13.1194 109.624 13.4834 109.416 13.6741C109.329 13.7607 109.195 13.8907 109.013 14.0641C108.831 14.2287 108.723 14.3284 108.688 14.3631H113.225V15.0001Z" fill="#8998AB"/>
<path d="M175.084 15.0001H169.663V14.4411L170.703 13.4141C170.868 13.2494 171.232 12.8551 171.795 12.2311C172.254 11.7024 172.623 11.2344 172.9 10.8271C173.151 10.4717 173.394 10.0297 173.628 9.50106C173.853 8.99839 173.966 8.55206 173.966 8.16206C173.966 7.67673 173.81 7.27373 173.498 6.95306C173.186 6.63239 172.761 6.47206 172.224 6.47206C171.765 6.47206 171.357 6.61939 171.002 6.91406C170.647 7.20006 170.43 7.60306 170.352 8.12306L169.767 7.90206C169.854 7.25206 170.14 6.73639 170.625 6.35506C171.102 5.98239 171.648 5.79606 172.263 5.79606C173.043 5.79606 173.641 6.02139 174.057 6.47206C174.473 6.91406 174.681 7.43406 174.681 8.03206C174.681 8.49139 174.555 9.02006 174.304 9.61806C174.07 10.1641 173.788 10.6754 173.459 11.1521C173.147 11.5941 172.761 12.0707 172.302 12.5821C171.825 13.1194 171.483 13.4834 171.275 13.6741C171.188 13.7607 171.054 13.8907 170.872 14.0641C170.69 14.2287 170.582 14.3284 170.547 14.3631H175.084V15.0001ZM179.378 15.1171C178.763 15.1171 178.221 14.9871 177.753 14.7271C177.294 14.4584 176.951 14.0641 176.726 13.5441L177.129 13.0761C177.346 13.5267 177.653 13.8691 178.052 14.1031C178.451 14.3284 178.893 14.4411 179.378 14.4411C179.993 14.4411 180.487 14.2591 180.86 13.8951C181.241 13.5311 181.432 13.0631 181.432 12.4911C181.432 11.9537 181.246 11.5204 180.873 11.1911C180.5 10.8531 180.028 10.6841 179.456 10.6841H178.676V10.0081H179.378C179.811 10.0081 180.206 9.83039 180.561 9.47506C180.908 9.12839 181.081 8.69073 181.081 8.16206C181.081 7.62473 180.925 7.20873 180.613 6.91406C180.31 6.61073 179.885 6.45906 179.339 6.45906C178.412 6.45906 177.753 6.87506 177.363 7.70706L176.96 7.27806C177.142 6.80139 177.445 6.43306 177.87 6.17306C178.303 5.91306 178.81 5.78306 179.391 5.78306C180.136 5.78306 180.721 5.98673 181.146 6.39406C181.579 6.80139 181.796 7.36039 181.796 8.07106C181.796 8.56506 181.666 9.01139 181.406 9.41006C181.155 9.80006 180.804 10.0861 180.353 10.2681V10.3071C180.908 10.3851 181.345 10.6364 181.666 11.0611C181.987 11.4857 182.147 11.9711 182.147 12.5171C182.147 13.3057 181.887 13.9384 181.367 14.4151C180.847 14.8831 180.184 15.1171 179.378 15.1171Z" fill="#8998AB"/>
<path d="M244.591 10.4501C244.591 11.8801 244.357 13.0154 243.889 13.8561C243.43 14.6881 242.715 15.1041 241.744 15.1041C240.765 15.1041 240.037 14.6837 239.56 13.8431C239.083 13.0024 238.845 11.8714 238.845 10.4501C238.845 9.02873 239.079 7.89773 239.547 7.05706C240.024 6.21639 240.747 5.79606 241.718 5.79606C242.689 5.79606 243.408 6.21639 243.876 7.05706C244.353 7.89773 244.591 9.02873 244.591 10.4501ZM241.744 14.4671C243.165 14.4671 243.876 13.1281 243.876 10.4501C243.876 7.77206 243.157 6.43306 241.718 6.43306C240.279 6.43306 239.56 7.77206 239.56 10.4501C239.56 13.1281 240.288 14.4671 241.744 14.4671ZM252.29 10.4501C252.29 11.8801 252.056 13.0154 251.588 13.8561C251.129 14.6881 250.414 15.1041 249.443 15.1041C248.464 15.1041 247.736 14.6837 247.259 13.8431C246.783 13.0024 246.544 11.8714 246.544 10.4501C246.544 9.02873 246.778 7.89773 247.246 7.05706C247.723 6.21639 248.447 5.79606 249.417 5.79606C250.388 5.79606 251.107 6.21639 251.575 7.05706C252.052 7.89773 252.29 9.02873 252.29 10.4501ZM249.443 14.4671C250.865 14.4671 251.575 13.1281 251.575 10.4501C251.575 7.77206 250.856 6.43306 249.417 6.43306C247.979 6.43306 247.259 7.77206 247.259 10.4501C247.259 13.1281 247.987 14.4671 249.443 14.4671Z" fill="#8998AB"/>
<path d="M313.591 10.4501C313.591 11.8801 313.357 13.0154 312.889 13.8561C312.43 14.6881 311.715 15.1041 310.744 15.1041C309.765 15.1041 309.037 14.6837 308.56 13.8431C308.083 13.0024 307.845 11.8714 307.845 10.4501C307.845 9.02873 308.079 7.89773 308.547 7.05706C309.024 6.21639 309.747 5.79606 310.718 5.79606C311.689 5.79606 312.408 6.21639 312.876 7.05706C313.353 7.89773 313.591 9.02873 313.591 10.4501ZM310.744 14.4671C312.165 14.4671 312.876 13.1281 312.876 10.4501C312.876 7.77206 312.157 6.43306 310.718 6.43306C309.279 6.43306 308.56 7.77206 308.56 10.4501C308.56 13.1281 309.288 14.4671 310.744 14.4671ZM315.648 8.01906L315.284 7.47306L317.351 5.82206H317.819V15.0001H317.143V6.81006L315.648 8.01906Z" fill="#8998AB"/>
<path d="M382.591 10.4501C382.591 11.8801 382.357 13.0154 381.889 13.8561C381.43 14.6881 380.715 15.1041 379.744 15.1041C378.765 15.1041 378.037 14.6837 377.56 13.8431C377.083 13.0024 376.845 11.8714 376.845 10.4501C376.845 9.02873 377.079 7.89773 377.547 7.05706C378.024 6.21639 378.747 5.79606 379.718 5.79606C380.689 5.79606 381.408 6.21639 381.876 7.05706C382.353 7.89773 382.591 9.02873 382.591 10.4501ZM379.744 14.4671C381.165 14.4671 381.876 13.1281 381.876 10.4501C381.876 7.77206 381.157 6.43306 379.718 6.43306C378.279 6.43306 377.56 7.77206 377.56 10.4501C377.56 13.1281 378.288 14.4671 379.744 14.4671ZM389.783 15.0001H384.362V14.4411L385.402 13.4141C385.567 13.2494 385.931 12.8551 386.494 12.2311C386.954 11.7024 387.322 11.2344 387.599 10.8271C387.851 10.4717 388.093 10.0297 388.327 9.50106C388.553 8.99839 388.665 8.55206 388.665 8.16206C388.665 7.67673 388.509 7.27373 388.197 6.95306C387.885 6.63239 387.461 6.47206 386.923 6.47206C386.464 6.47206 386.057 6.61939 385.701 6.91406C385.346 7.20006 385.129 7.60306 385.051 8.12306L384.466 7.90206C384.553 7.25206 384.839 6.73639 385.324 6.35506C385.801 5.98239 386.347 5.79606 386.962 5.79606C387.742 5.79606 388.34 6.02139 388.756 6.47206C389.172 6.91406 389.38 7.43406 389.38 8.03206C389.38 8.49139 389.255 9.02006 389.003 9.61806C388.769 10.1641 388.488 10.6754 388.158 11.1521C387.846 11.5941 387.461 12.0707 387.001 12.5821C386.525 13.1194 386.182 13.4834 385.974 13.6741C385.888 13.7607 385.753 13.8907 385.571 14.0641C385.389 14.2287 385.281 14.3284 385.246 14.3631H389.783V15.0001Z" fill="#8998AB"/>
<path d="M451.591 10.4501C451.591 11.8801 451.357 13.0154 450.889 13.8561C450.43 14.6881 449.715 15.1041 448.744 15.1041C447.765 15.1041 447.037 14.6837 446.56 13.8431C446.083 13.0024 445.845 11.8714 445.845 10.4501C445.845 9.02873 446.079 7.89773 446.547 7.05706C447.024 6.21639 447.747 5.79606 448.718 5.79606C449.689 5.79606 450.408 6.21639 450.876 7.05706C451.353 7.89773 451.591 9.02873 451.591 10.4501ZM448.744 14.4671C450.165 14.4671 450.876 13.1281 450.876 10.4501C450.876 7.77206 450.157 6.43306 448.718 6.43306C447.279 6.43306 446.56 7.77206 446.56 10.4501C446.56 13.1281 447.288 14.4671 448.744 14.4671ZM455.936 15.1171C455.321 15.1171 454.779 14.9871 454.311 14.7271C453.852 14.4584 453.51 14.0641 453.284 13.5441L453.687 13.0761C453.904 13.5267 454.212 13.8691 454.61 14.1031C455.009 14.3284 455.451 14.4411 455.936 14.4411C456.552 14.4411 457.046 14.2591 457.418 13.8951C457.8 13.5311 457.99 13.0631 457.99 12.4911C457.99 11.9537 457.804 11.5204 457.431 11.1911C457.059 10.8531 456.586 10.6841 456.014 10.6841H455.234V10.0081H455.936C456.37 10.0081 456.764 9.83039 457.119 9.47506C457.466 9.12839 457.639 8.69073 457.639 8.16206C457.639 7.62473 457.483 7.20873 457.171 6.91406C456.868 6.61073 456.443 6.45906 455.897 6.45906C454.97 6.45906 454.311 6.87506 453.921 7.70706L453.518 7.27806C453.7 6.80139 454.004 6.43306 454.428 6.17306C454.862 5.91306 455.369 5.78306 455.949 5.78306C456.695 5.78306 457.28 5.98673 457.704 6.39406C458.138 6.80139 458.354 7.36039 458.354 8.07106C458.354 8.56506 458.224 9.01139 457.964 9.41006C457.713 9.80006 457.362 10.0861 456.911 10.2681V10.3071C457.466 10.3851 457.904 10.6364 458.224 11.0611C458.545 11.4857 458.705 11.9711 458.705 12.5171C458.705 13.3057 458.445 13.9384 457.925 14.4151C457.405 14.8831 456.742 15.1171 455.936 15.1171Z" fill="#8998AB"/>
<path d="M520.591 10.4501C520.591 11.8801 520.357 13.0154 519.889 13.8561C519.43 14.6881 518.715 15.1041 517.744 15.1041C516.765 15.1041 516.037 14.6837 515.56 13.8431C515.083 13.0024 514.845 11.8714 514.845 10.4501C514.845 9.02873 515.079 7.89773 515.547 7.05706C516.024 6.21639 516.747 5.79606 517.718 5.79606C518.689 5.79606 519.408 6.21639 519.876 7.05706C520.353 7.89773 520.591 9.02873 520.591 10.4501ZM517.744 14.4671C519.165 14.4671 519.876 13.1281 519.876 10.4501C519.876 7.77206 519.157 6.43306 517.718 6.43306C516.279 6.43306 515.56 7.77206 515.56 10.4501C515.56 13.1281 516.288 14.4671 517.744 14.4671ZM526.912 15.0001H526.236V12.5951H522.011V12.1401L525.989 5.90006H526.769L522.921 11.9191H526.236V9.15006H526.912V11.9191H528.251V12.5951H526.912V15.0001Z" fill="#8998AB"/>
<path d="M589.591 10.4501C589.591 11.8801 589.357 13.0154 588.889 13.8561C588.43 14.6881 587.715 15.1041 586.744 15.1041C585.765 15.1041 585.037 14.6837 584.56 13.8431C584.083 13.0024 583.845 11.8714 583.845 10.4501C583.845 9.02873 584.079 7.89773 584.547 7.05706C585.024 6.21639 585.747 5.79606 586.718 5.79606C587.689 5.79606 588.408 6.21639 588.876 7.05706C589.353 7.89773 589.591 9.02873 589.591 10.4501ZM586.744 14.4671C588.165 14.4671 588.876 13.1281 588.876 10.4501C588.876 7.77206 588.157 6.43306 586.718 6.43306C585.279 6.43306 584.56 7.77206 584.56 10.4501C584.56 13.1281 585.288 14.4671 586.744 14.4671ZM592.168 10.2681L592.727 5.90006H596.679V6.57606H593.312L592.922 9.54006C593.191 9.46206 593.49 9.42306 593.819 9.42306C594.669 9.42306 595.358 9.67439 595.886 10.1771C596.424 10.6884 596.692 11.3557 596.692 12.1791C596.692 13.0717 596.419 13.7824 595.873 14.3111C595.319 14.8484 594.651 15.1171 593.871 15.1171C593.334 15.1171 592.831 14.9914 592.363 14.7401C591.904 14.4887 591.544 14.1334 591.284 13.6741L591.687 13.1931C591.913 13.5831 592.225 13.8907 592.623 14.1161C593.031 14.3327 593.451 14.4411 593.884 14.4411C594.482 14.4411 594.981 14.2331 595.379 13.8171C595.778 13.3924 595.977 12.8551 595.977 12.2051C595.977 11.5724 595.752 11.0567 595.301 10.6581C594.859 10.2421 594.274 10.0341 593.546 10.0341C593.035 10.0341 592.576 10.1121 592.168 10.2681Z" fill="#8998AB"/>
<path d="M658.591 10.4501C658.591 11.8801 658.357 13.0154 657.889 13.8561C657.43 14.6881 656.715 15.1041 655.744 15.1041C654.765 15.1041 654.037 14.6837 653.56 13.8431C653.083 13.0024 652.845 11.8714 652.845 10.4501C652.845 9.02873 653.079 7.89773 653.547 7.05706C654.024 6.21639 654.747 5.79606 655.718 5.79606C656.689 5.79606 657.408 6.21639 657.876 7.05706C658.353 7.89773 658.591 9.02873 658.591 10.4501ZM655.744 14.4671C657.165 14.4671 657.876 13.1281 657.876 10.4501C657.876 7.77206 657.157 6.43306 655.718 6.43306C654.279 6.43306 653.56 7.77206 653.56 10.4501C653.56 13.1281 654.288 14.4671 655.744 14.4671ZM660.401 11.7761C660.401 10.9961 660.531 10.2464 660.791 9.52706C661.051 8.80773 661.398 8.19239 661.831 7.68106C662.75 6.64106 663.734 6.00839 664.782 5.78306L665.068 6.29006C664.132 6.50673 663.292 7.02239 662.546 7.83706C661.81 8.64306 661.355 9.66573 661.181 10.9051C661.389 10.4544 661.697 10.0947 662.104 9.82606C662.512 9.55739 662.993 9.42306 663.547 9.42306C664.327 9.42306 664.96 9.68306 665.445 10.2031C665.939 10.7231 666.186 11.3991 666.186 12.2311C666.186 13.0544 665.913 13.7434 665.367 14.2981C664.83 14.8441 664.202 15.1171 663.482 15.1171C662.512 15.1171 661.753 14.7964 661.207 14.1551C660.67 13.5137 660.401 12.7207 660.401 11.7761ZM661.116 11.7761C661.116 12.5127 661.32 13.1454 661.727 13.6741C662.135 14.1854 662.715 14.4411 663.469 14.4411C664.024 14.4411 664.496 14.2287 664.886 13.8041C665.276 13.3707 665.471 12.8637 665.471 12.2831C665.471 11.6244 665.281 11.0914 664.899 10.6841C664.518 10.2681 663.998 10.0601 663.339 10.0601C662.767 10.0601 662.282 10.2377 661.883 10.5931C661.485 10.9484 661.229 11.3427 661.116 11.7761Z" fill="#8998AB"/>
<path d="M727.591 10.4501C727.591 11.8801 727.357 13.0154 726.889 13.8561C726.43 14.6881 725.715 15.1041 724.744 15.1041C723.765 15.1041 723.037 14.6837 722.56 13.8431C722.083 13.0024 721.845 11.8714 721.845 10.4501C721.845 9.02873 722.079 7.89773 722.547 7.05706C723.024 6.21639 723.747 5.79606 724.718 5.79606C725.689 5.79606 726.408 6.21639 726.876 7.05706C727.353 7.89773 727.591 9.02873 727.591 10.4501ZM724.744 14.4671C726.165 14.4671 726.876 13.1281 726.876 10.4501C726.876 7.77206 726.157 6.43306 724.718 6.43306C723.279 6.43306 722.56 7.77206 722.56 10.4501C722.56 13.1281 723.288 14.4671 724.744 14.4671ZM733.561 6.57606H729.141V5.90006H734.393V6.31606L730.935 15.0001H730.181L733.561 6.57606Z" fill="#8998AB"/>
<path d="M796.591 10.4501C796.591 11.8801 796.357 13.0154 795.889 13.8561C795.43 14.6881 794.715 15.1041 793.744 15.1041C792.765 15.1041 792.037 14.6837 791.56 13.8431C791.083 13.0024 790.845 11.8714 790.845 10.4501C790.845 9.02873 791.079 7.89773 791.547 7.05706C792.024 6.21639 792.747 5.79606 793.718 5.79606C794.689 5.79606 795.408 6.21639 795.876 7.05706C796.353 7.89773 796.591 9.02873 796.591 10.4501ZM793.744 14.4671C795.165 14.4671 795.876 13.1281 795.876 10.4501C795.876 7.77206 795.157 6.43306 793.718 6.43306C792.279 6.43306 791.56 7.77206 791.56 10.4501C791.56 13.1281 792.288 14.4671 793.744 14.4671ZM801.339 9.98206H801.742C802.167 9.98206 802.557 9.81306 802.912 9.47506C803.259 9.12839 803.432 8.71239 803.432 8.22706C803.432 7.69839 803.242 7.26939 802.86 6.94006C802.488 6.61939 802.041 6.45906 801.521 6.45906C800.993 6.45906 800.551 6.61939 800.195 6.94006C799.831 7.26939 799.649 7.69839 799.649 8.22706C799.649 8.71239 799.823 9.12839 800.169 9.47506C800.516 9.81306 800.906 9.98206 801.339 9.98206ZM801.729 10.6581H801.391C800.819 10.6581 800.334 10.8401 799.935 11.2041C799.537 11.5507 799.337 11.9927 799.337 12.5301C799.337 13.0847 799.55 13.5441 799.974 13.9081C800.408 14.2634 800.928 14.4411 801.534 14.4411C802.176 14.4411 802.7 14.2677 803.107 13.9211C803.532 13.5744 803.744 13.1107 803.744 12.5301C803.744 11.9667 803.554 11.5161 803.172 11.1781C802.791 10.8314 802.31 10.6581 801.729 10.6581ZM798.622 12.6471C798.622 12.0924 798.791 11.6027 799.129 11.1781C799.467 10.7534 799.914 10.4761 800.468 10.3461V10.3071C800.044 10.1771 799.68 9.90839 799.376 9.50106C799.082 9.09373 798.934 8.64306 798.934 8.14906C798.934 7.43839 799.186 6.87073 799.688 6.44606C800.191 6.00406 800.806 5.78306 801.534 5.78306C802.271 5.78306 802.891 6.00406 803.393 6.44606C803.896 6.87073 804.147 7.43839 804.147 8.14906C804.147 8.61706 804.004 9.05039 803.718 9.44906C803.432 9.83906 803.051 10.1207 802.574 10.2941V10.3331C803.129 10.4024 803.58 10.6494 803.926 11.0741C804.282 11.4987 804.459 12.0057 804.459 12.5951C804.459 13.3664 804.173 13.9817 803.601 14.4411C803.047 14.8917 802.362 15.1171 801.547 15.1171C800.733 15.1171 800.044 14.8917 799.48 14.4411C798.908 13.9817 798.622 13.3837 798.622 12.6471Z" fill="#8998AB"/>
<path d="M865.591 10.4501C865.591 11.8801 865.357 13.0154 864.889 13.8561C864.43 14.6881 863.715 15.1041 862.744 15.1041C861.765 15.1041 861.037 14.6837 860.56 13.8431C860.083 13.0024 859.845 11.8714 859.845 10.4501C859.845 9.02873 860.079 7.89773 860.547 7.05706C861.024 6.21639 861.747 5.79606 862.718 5.79606C863.689 5.79606 864.408 6.21639 864.876 7.05706C865.353 7.89773 865.591 9.02873 865.591 10.4501ZM862.744 14.4671C864.165 14.4671 864.876 13.1281 864.876 10.4501C864.876 7.77206 864.157 6.43306 862.718 6.43306C861.279 6.43306 860.56 7.77206 860.56 10.4501C860.56 13.1281 861.288 14.4671 862.744 14.4671ZM873.121 9.16306C873.121 10.8184 872.705 12.1791 871.873 13.2451C871.041 14.3111 869.975 14.9351 868.675 15.1171L868.428 14.5841C869.52 14.3934 870.417 13.8994 871.119 13.1021C871.813 12.3134 872.22 11.2907 872.341 10.0341C872.159 10.4587 871.865 10.7967 871.457 11.0481C871.05 11.2994 870.573 11.4251 870.027 11.4251C869.239 11.4251 868.589 11.1564 868.077 10.6191C867.575 10.0904 867.323 9.43173 867.323 8.64306C867.323 7.82839 867.609 7.14806 868.181 6.60206C868.753 6.05606 869.403 5.78306 870.131 5.78306C871.111 5.78306 871.852 6.09939 872.354 6.73206C872.866 7.37339 873.121 8.18373 873.121 9.16306ZM872.406 9.16306C872.406 8.41773 872.216 7.78073 871.834 7.25206C871.462 6.72339 870.903 6.45906 870.157 6.45906C869.594 6.45906 869.1 6.67139 868.675 7.09606C868.251 7.51206 868.038 8.01039 868.038 8.59106C868.038 9.19773 868.229 9.71773 868.61 10.1511C868.983 10.5757 869.512 10.7881 870.196 10.7881C870.794 10.7881 871.28 10.6277 871.652 10.3071C872.034 9.98639 872.285 9.60506 872.406 9.16306Z" fill="#8998AB"/>
<path d="M928.949 8.01906L928.585 7.47306L930.652 5.82206H931.12V15.0001H930.444V6.81006L928.949 8.01906ZM939.688 10.4501C939.688 11.8801 939.454 13.0154 938.986 13.8561C938.527 14.6881 937.812 15.1041 936.841 15.1041C935.862 15.1041 935.134 14.6837 934.657 13.8431C934.18 13.0024 933.942 11.8714 933.942 10.4501C933.942 9.02873 934.176 7.89773 934.644 7.05706C935.121 6.21639 935.844 5.79606 936.815 5.79606C937.786 5.79606 938.505 6.21639 938.973 7.05706C939.45 7.89773 939.688 9.02873 939.688 10.4501ZM936.841 14.4671C938.262 14.4671 938.973 13.1281 938.973 10.4501C938.973 7.77206 938.254 6.43306 936.815 6.43306C935.376 6.43306 934.657 7.77206 934.657 10.4501C934.657 13.1281 935.385 14.4671 936.841 14.4671Z" fill="#8998AB"/>
<path d="M997.949 8.01906L997.585 7.47306L999.652 5.82206H1000.12V15.0001H999.444V6.81006L997.949 8.01906ZM1003.05 8.01906L1002.68 7.47306L1004.75 5.82206H1005.22V15.0001H1004.54V6.81006L1003.05 8.01906Z" fill="#8998AB"/>
<path d="M1066.95 8.01906L1066.59 7.47306L1068.65 5.82206H1069.12V15.0001H1068.44V6.81006L1066.95 8.01906ZM1077.18 15.0001H1071.76V14.4411L1072.8 13.4141C1072.96 13.2494 1073.33 12.8551 1073.89 12.2311C1074.35 11.7024 1074.72 11.2344 1075 10.8271C1075.25 10.4717 1075.49 10.0297 1075.72 9.50106C1075.95 8.99839 1076.06 8.55206 1076.06 8.16206C1076.06 7.67673 1075.91 7.27373 1075.59 6.95306C1075.28 6.63239 1074.86 6.47206 1074.32 6.47206C1073.86 6.47206 1073.45 6.61939 1073.1 6.91406C1072.74 7.20006 1072.53 7.60306 1072.45 8.12306L1071.86 7.90206C1071.95 7.25206 1072.24 6.73639 1072.72 6.35506C1073.2 5.98239 1073.74 5.79606 1074.36 5.79606C1075.14 5.79606 1075.74 6.02139 1076.15 6.47206C1076.57 6.91406 1076.78 7.43406 1076.78 8.03206C1076.78 8.49139 1076.65 9.02006 1076.4 9.61806C1076.17 10.1641 1075.89 10.6754 1075.56 11.1521C1075.24 11.5941 1074.86 12.0707 1074.4 12.5821C1073.92 13.1194 1073.58 13.4834 1073.37 13.6741C1073.29 13.7607 1073.15 13.8907 1072.97 14.0641C1072.79 14.2287 1072.68 14.3284 1072.64 14.3631H1077.18V15.0001Z" fill="#8998AB"/>
<path d="M1135.95 8.01906L1135.59 7.47306L1137.65 5.82206H1138.12V15.0001H1137.44V6.81006L1135.95 8.01906ZM1143.33 15.1171C1142.72 15.1171 1142.18 14.9871 1141.71 14.7271C1141.25 14.4584 1140.91 14.0641 1140.68 13.5441L1141.08 13.0761C1141.3 13.5267 1141.61 13.8691 1142.01 14.1031C1142.41 14.3284 1142.85 14.4411 1143.33 14.4411C1143.95 14.4411 1144.44 14.2591 1144.82 13.8951C1145.2 13.5311 1145.39 13.0631 1145.39 12.4911C1145.39 11.9537 1145.2 11.5204 1144.83 11.1911C1144.46 10.8531 1143.98 10.6841 1143.41 10.6841H1142.63V10.0081H1143.33C1143.77 10.0081 1144.16 9.83039 1144.52 9.47506C1144.86 9.12839 1145.04 8.69073 1145.04 8.16206C1145.04 7.62473 1144.88 7.20873 1144.57 6.91406C1144.27 6.61073 1143.84 6.45906 1143.29 6.45906C1142.37 6.45906 1141.71 6.87506 1141.32 7.70706L1140.92 7.27806C1141.1 6.80139 1141.4 6.43306 1141.83 6.17306C1142.26 5.91306 1142.77 5.78306 1143.35 5.78306C1144.09 5.78306 1144.68 5.98673 1145.1 6.39406C1145.54 6.80139 1145.75 7.36039 1145.75 8.07106C1145.75 8.56506 1145.62 9.01139 1145.36 9.41006C1145.11 9.80006 1144.76 10.0861 1144.31 10.2681V10.3071C1144.86 10.3851 1145.3 10.6364 1145.62 11.0611C1145.94 11.4857 1146.1 11.9711 1146.1 12.5171C1146.1 13.3057 1145.84 13.9384 1145.32 14.4151C1144.8 14.8831 1144.14 15.1171 1143.33 15.1171Z" fill="#8998AB"/>
<path d="M1204.95 8.01906L1204.59 7.47306L1206.65 5.82206H1207.12V15.0001H1206.44V6.81006L1204.95 8.01906ZM1214.31 15.0001H1213.63V12.5951H1209.41V12.1401L1213.39 5.90006H1214.17L1210.32 11.9191H1213.63V9.15006H1214.31V11.9191H1215.65V12.5951H1214.31V15.0001Z" fill="#8998AB"/>
<path d="M1273.95 8.01906L1273.59 7.47306L1275.65 5.82206H1276.12V15.0001H1275.44V6.81006L1273.95 8.01906ZM1279.57 10.2681L1280.12 5.90006H1284.08V6.57606H1280.71L1280.32 9.54006C1280.59 9.46206 1280.89 9.42306 1281.22 9.42306C1282.07 9.42306 1282.76 9.67439 1283.28 10.1771C1283.82 10.6884 1284.09 11.3557 1284.09 12.1791C1284.09 13.0717 1283.82 13.7824 1283.27 14.3111C1282.72 14.8484 1282.05 15.1171 1281.27 15.1171C1280.73 15.1171 1280.23 14.9914 1279.76 14.7401C1279.3 14.4887 1278.94 14.1334 1278.68 13.6741L1279.08 13.1931C1279.31 13.5831 1279.62 13.8907 1280.02 14.1161C1280.43 14.3327 1280.85 14.4411 1281.28 14.4411C1281.88 14.4411 1282.38 14.2331 1282.78 13.8171C1283.18 13.3924 1283.37 12.8551 1283.37 12.2051C1283.37 11.5724 1283.15 11.0567 1282.7 10.6581C1282.26 10.2421 1281.67 10.0341 1280.94 10.0341C1280.43 10.0341 1279.97 10.1121 1279.57 10.2681Z" fill="#8998AB"/>
<path d="M1342.95 8.01906L1342.59 7.47306L1344.65 5.82206H1345.12V15.0001H1344.44V6.81006L1342.95 8.01906ZM1347.8 11.7761C1347.8 10.9961 1347.93 10.2464 1348.19 9.52706C1348.45 8.80773 1348.8 8.19239 1349.23 7.68106C1350.15 6.64106 1351.13 6.00839 1352.18 5.78306L1352.47 6.29006C1351.53 6.50673 1350.69 7.02239 1349.94 7.83706C1349.21 8.64306 1348.75 9.66573 1348.58 10.9051C1348.79 10.4544 1349.09 10.0947 1349.5 9.82606C1349.91 9.55739 1350.39 9.42306 1350.94 9.42306C1351.72 9.42306 1352.36 9.68306 1352.84 10.2031C1353.34 10.7231 1353.58 11.3991 1353.58 12.2311C1353.58 13.0544 1353.31 13.7434 1352.76 14.2981C1352.23 14.8441 1351.6 15.1171 1350.88 15.1171C1349.91 15.1171 1349.15 14.7964 1348.6 14.1551C1348.07 13.5137 1347.8 12.7207 1347.8 11.7761ZM1348.51 11.7761C1348.51 12.5127 1348.72 13.1454 1349.12 13.6741C1349.53 14.1854 1350.11 14.4411 1350.87 14.4411C1351.42 14.4411 1351.89 14.2287 1352.28 13.8041C1352.67 13.3707 1352.87 12.8637 1352.87 12.2831C1352.87 11.6244 1352.68 11.0914 1352.3 10.6841C1351.92 10.2681 1351.4 10.0601 1350.74 10.0601C1350.16 10.0601 1349.68 10.2377 1349.28 10.5931C1348.88 10.9484 1348.63 11.3427 1348.51 11.7761Z" fill="#8998AB"/>
<path d="M1411.95 8.01906L1411.59 7.47306L1413.65 5.82206H1414.12V15.0001H1413.44V6.81006L1411.95 8.01906ZM1420.96 6.57606H1416.54V5.90006H1421.79V6.31606L1418.33 15.0001H1417.58L1420.96 6.57606Z" fill="#8998AB"/>
<path d="M1480.95 8.01906L1480.59 7.47306L1482.65 5.82206H1483.12V15.0001H1482.44V6.81006L1480.95 8.01906ZM1488.74 9.98206H1489.14C1489.56 9.98206 1489.95 9.81306 1490.31 9.47506C1490.66 9.12839 1490.83 8.71239 1490.83 8.22706C1490.83 7.69839 1490.64 7.26939 1490.26 6.94006C1489.89 6.61939 1489.44 6.45906 1488.92 6.45906C1488.39 6.45906 1487.95 6.61939 1487.59 6.94006C1487.23 7.26939 1487.05 7.69839 1487.05 8.22706C1487.05 8.71239 1487.22 9.12839 1487.57 9.47506C1487.91 9.81306 1488.3 9.98206 1488.74 9.98206ZM1489.13 10.6581H1488.79C1488.22 10.6581 1487.73 10.8401 1487.33 11.2041C1486.93 11.5507 1486.73 11.9927 1486.73 12.5301C1486.73 13.0847 1486.95 13.5441 1487.37 13.9081C1487.81 14.2634 1488.33 14.4411 1488.93 14.4411C1489.57 14.4411 1490.1 14.2677 1490.5 13.9211C1490.93 13.5744 1491.14 13.1107 1491.14 12.5301C1491.14 11.9667 1490.95 11.5161 1490.57 11.1781C1490.19 10.8314 1489.71 10.6581 1489.13 10.6581ZM1486.02 12.6471C1486.02 12.0924 1486.19 11.6027 1486.53 11.1781C1486.86 10.7534 1487.31 10.4761 1487.87 10.3461V10.3071C1487.44 10.1771 1487.08 9.90839 1486.77 9.50106C1486.48 9.09373 1486.33 8.64306 1486.33 8.14906C1486.33 7.43839 1486.58 6.87073 1487.09 6.44606C1487.59 6.00406 1488.2 5.78306 1488.93 5.78306C1489.67 5.78306 1490.29 6.00406 1490.79 6.44606C1491.29 6.87073 1491.54 7.43839 1491.54 8.14906C1491.54 8.61706 1491.4 9.05039 1491.12 9.44906C1490.83 9.83906 1490.45 10.1207 1489.97 10.2941V10.3331C1490.53 10.4024 1490.98 10.6494 1491.32 11.0741C1491.68 11.4987 1491.86 12.0057 1491.86 12.5951C1491.86 13.3664 1491.57 13.9817 1491 14.4411C1490.44 14.8917 1489.76 15.1171 1488.94 15.1171C1488.13 15.1171 1487.44 14.8917 1486.88 14.4411C1486.31 13.9817 1486.02 13.3837 1486.02 12.6471Z" fill="#8998AB"/>
<path d="M1549.95 8.01906L1549.59 7.47306L1551.65 5.82206H1552.12V15.0001H1551.44V6.81006L1549.95 8.01906ZM1560.52 9.16306C1560.52 10.8184 1560.1 12.1791 1559.27 13.2451C1558.44 14.3111 1557.37 14.9351 1556.07 15.1171L1555.83 14.5841C1556.92 14.3934 1557.81 13.8994 1558.52 13.1021C1559.21 12.3134 1559.62 11.2907 1559.74 10.0341C1559.56 10.4587 1559.26 10.7967 1558.85 11.0481C1558.45 11.2994 1557.97 11.4251 1557.42 11.4251C1556.64 11.4251 1555.99 11.1564 1555.47 10.6191C1554.97 10.0904 1554.72 9.43173 1554.72 8.64306C1554.72 7.82839 1555.01 7.14806 1555.58 6.60206C1556.15 6.05606 1556.8 5.78306 1557.53 5.78306C1558.51 5.78306 1559.25 6.09939 1559.75 6.73206C1560.26 7.37339 1560.52 8.18373 1560.52 9.16306ZM1559.8 9.16306C1559.8 8.41773 1559.61 7.78073 1559.23 7.25206C1558.86 6.72339 1558.3 6.45906 1557.55 6.45906C1556.99 6.45906 1556.5 6.67139 1556.07 7.09606C1555.65 7.51206 1555.44 8.01039 1555.44 8.59106C1555.44 9.19773 1555.63 9.71773 1556.01 10.1511C1556.38 10.5757 1556.91 10.7881 1557.59 10.7881C1558.19 10.7881 1558.68 10.6277 1559.05 10.3071C1559.43 9.98639 1559.68 9.60506 1559.8 9.16306Z" fill="#8998AB"/>
<path d="M1624.27 15.0001H1618.39V13.4401C1618.4 13.4314 1618.61 13.2277 1619.03 12.8291L1619.74 12.1141C1619.9 11.9407 1620.11 11.7241 1620.37 11.4641C1620.66 11.1521 1620.87 10.9051 1620.99 10.7231L1621.42 10.0601C1621.72 9.60073 1621.87 9.12839 1621.87 8.64306C1621.87 8.04506 1621.6 7.74606 1621.04 7.74606C1620.79 7.74606 1620.59 7.82839 1620.44 7.99306C1620.3 8.14906 1620.16 8.39173 1620.04 8.72106L1618.42 7.98006C1618.57 7.29539 1618.89 6.76239 1619.38 6.38106C1619.87 5.99106 1620.5 5.79606 1621.28 5.79606C1622.12 5.79606 1622.77 6.03439 1623.24 6.51106C1623.72 6.98773 1623.95 7.56839 1623.95 8.25306C1623.95 9.97773 1622.94 11.6201 1620.91 13.1801H1624.27V15.0001ZM1626.25 13.8821C1625.71 13.0587 1625.44 11.9147 1625.44 10.4501C1625.44 8.98539 1625.71 7.84573 1626.23 7.03106C1626.77 6.20773 1627.56 5.79606 1628.59 5.79606C1629.61 5.79606 1630.39 6.20773 1630.93 7.03106C1631.47 7.85439 1631.73 8.99406 1631.73 10.4501C1631.73 11.9234 1631.47 13.0674 1630.94 13.8821C1630.41 14.6967 1629.64 15.1041 1628.61 15.1041C1627.58 15.1041 1626.79 14.6967 1626.25 13.8821ZM1627.52 10.4501C1627.52 12.3394 1627.89 13.2841 1628.61 13.2841C1628.99 13.2841 1629.25 13.0717 1629.41 12.6471C1629.57 12.2224 1629.65 11.4901 1629.65 10.4501C1629.65 9.41006 1629.57 8.67773 1629.41 8.25306C1629.25 7.82839 1628.98 7.61606 1628.59 7.61606C1628.22 7.61606 1627.94 7.83706 1627.77 8.27906C1627.6 8.71239 1627.52 9.43606 1627.52 10.4501Z" fill="white"/>
<g opacity="0.15">
<line x1="37.4784" y1="28.0001" x2="37.4784" y2="207" stroke="#A1B1C5"/>
<line x1="36.9999" y1="206.5" x2="1621" y2="206.5" stroke="#A1B1C5"/>
<line x1="36.9999" y1="163.5" x2="1624" y2="163.5" stroke="#A1B1C5"/>
<line x1="36.9999" y1="124.5" x2="1624" y2="124.5" stroke="#A1B1C5"/>
<line x1="36.9999" y1="85.5001" x2="1624" y2="85.5002" stroke="#A1B1C5"/>
<line x1="36.9999" y1="46.5001" x2="1624" y2="46.5002" stroke="#A1B1C5"/>
<line x1="106.478" y1="28.0001" x2="106.478" y2="207" stroke="#A1B1C5"/>
<line x1="175.478" y1="28.0001" x2="175.478" y2="207" stroke="#A1B1C5"/>
<line x1="244.478" y1="28.0001" x2="244.478" y2="207" stroke="#A1B1C5"/>
<line x1="313.478" y1="28.0001" x2="313.478" y2="207" stroke="#A1B1C5"/>
<line x1="382.478" y1="28.0001" x2="382.478" y2="207" stroke="#A1B1C5"/>
<line x1="451.478" y1="28.0001" x2="451.478" y2="207" stroke="#A1B1C5"/>
<line x1="520.478" y1="28.0001" x2="520.478" y2="207" stroke="#A1B1C5"/>
<line x1="589.478" y1="28.0001" x2="589.478" y2="207" stroke="#A1B1C5"/>
<line x1="658.478" y1="28.0001" x2="658.478" y2="207" stroke="#A1B1C5"/>
<line x1="727.478" y1="28.0001" x2="727.478" y2="207" stroke="#A1B1C5"/>
<line x1="796.478" y1="28.0001" x2="796.478" y2="207" stroke="#A1B1C5"/>
<line x1="865.478" y1="28.0001" x2="865.478" y2="207" stroke="#A1B1C5"/>
<line x1="934.478" y1="28.0001" x2="934.478" y2="207" stroke="#A1B1C5"/>
<line x1="1003.48" y1="28.0001" x2="1003.48" y2="207" stroke="#A1B1C5"/>
<line x1="1072.48" y1="28.0001" x2="1072.48" y2="207" stroke="#A1B1C5"/>
<line x1="1141.48" y1="28.0001" x2="1141.48" y2="207" stroke="#A1B1C5"/>
<line x1="1210.48" y1="28.0001" x2="1210.48" y2="207" stroke="#A1B1C5"/>
<line x1="1279.48" y1="28.0001" x2="1279.48" y2="207" stroke="#A1B1C5"/>
<line x1="1348.48" y1="28.0001" x2="1348.48" y2="207" stroke="#A1B1C5"/>
<line x1="1417.48" y1="28.0001" x2="1417.48" y2="207" stroke="#A1B1C5"/>
<line x1="1486.48" y1="28.0001" x2="1486.48" y2="207" stroke="#A1B1C5"/>
<line x1="1555.48" y1="28.0001" x2="1555.48" y2="207" stroke="#A1B1C5"/>
<line x1="1624.5" y1="28.0001" x2="1624.5" y2="207" stroke="#A1B1C5"/>
</g>
<g opacity="0.3" filter="url(#filter0_d_3225_92322)">
<path d="M36.9778 183L49.6761 172.343C59.7633 163.877 74.2718 163.219 85.0836 170.738V170.738C95.5714 178.031 109.584 177.652 119.663 169.803L153.658 143.326C172.604 128.57 198.524 126.532 219.543 138.147L226.5 141.991C247.394 153.535 273.143 151.597 292.072 137.054L329.228 108.508C340.179 100.095 353.698 95.7163 367.502 96.1123L625.039 103.5L713.187 107.719C723.868 108.23 734.492 105.878 743.959 100.905L777.312 83.3833C785.918 78.8622 795.494 76.5001 805.216 76.5001H1620.3" stroke="#8B98EE" stroke-width="1.5"/>
</g>
<g filter="url(#filter1_d_3225_92322)">
<circle cx="658.944" cy="104.5" r="4.5" fill="#EB376D"/>
<circle cx="658.944" cy="104.5" r="4" stroke="white"/>
</g>
<g filter="url(#filter2_d_3225_92322)">
<circle cx="796.586" cy="76.5001" r="4.5" fill="#EB376D"/>
<circle cx="796.586" cy="76.5001" r="4" stroke="white"/>
</g>
<g filter="url(#filter3_d_3225_92322)">
<circle cx="865.462" cy="76.5001" r="4.5" fill="#EB376D"/>
<circle cx="865.462" cy="76.5001" r="4" stroke="white"/>
</g>
<g filter="url(#filter4_d_3225_92322)">
<circle cx="934.365" cy="76.5001" r="4.5" fill="#EB376D"/>
<circle cx="934.365" cy="76.5001" r="4" stroke="white"/>
</g>
<g filter="url(#filter5_d_3225_92322)">
<circle cx="1003.21" cy="76.5001" r="4.5" fill="#EB376D"/>
<circle cx="1003.21" cy="76.5001" r="4" stroke="white"/>
</g>
<g filter="url(#filter6_d_3225_92322)">
<circle cx="1073.09" cy="76.5001" r="4.5" fill="#EB376D"/>
<circle cx="1073.09" cy="76.5001" r="4" stroke="white"/>
</g>
<g filter="url(#filter7_d_3225_92322)">
<circle cx="1141.91" cy="76.5001" r="4.5" fill="#EB376D"/>
<circle cx="1141.91" cy="76.5001" r="4" stroke="white"/>
</g>
<g filter="url(#filter8_d_3225_92322)">
<circle cx="1210.78" cy="76.5001" r="4.5" fill="#EB376D"/>
<circle cx="1210.78" cy="76.5001" r="4" stroke="white"/>
</g>
<g filter="url(#filter9_d_3225_92322)">
<circle cx="1279.63" cy="76.5001" r="4.5" fill="#EB376D"/>
<circle cx="1279.63" cy="76.5001" r="4" stroke="white"/>
</g>
<g filter="url(#filter10_d_3225_92322)">
<circle cx="1348.56" cy="76.5001" r="4.5" fill="#EB376D"/>
<circle cx="1348.56" cy="76.5001" r="4" stroke="white"/>
</g>
<g filter="url(#filter11_d_3225_92322)">
<circle cx="1417.46" cy="76.5001" r="4.5" fill="#EB376D"/>
<circle cx="1417.46" cy="76.5001" r="4" stroke="white"/>
</g>
<g filter="url(#filter12_d_3225_92322)">
<circle cx="1486.5" cy="76.5001" r="4.5" fill="#EB376D"/>
<circle cx="1486.5" cy="76.5001" r="4" stroke="white"/>
</g>
<g filter="url(#filter13_d_3225_92322)">
<circle cx="1555.5" cy="76.5001" r="4.5" fill="#EB376D"/>
<circle cx="1555.5" cy="76.5001" r="4" stroke="white"/>
</g>
<g filter="url(#filter14_d_3225_92322)">
<circle cx="1624.5" cy="76.5001" r="4.5" fill="#EB376D"/>
<circle cx="1624.5" cy="76.5001" r="4" stroke="white"/>
</g>
<g filter="url(#filter15_d_3225_92322)">
<circle cx="589.15" cy="101.5" r="4.5" fill="#EB376D"/>
<circle cx="589.15" cy="101.5" r="4" stroke="white"/>
</g>
<g filter="url(#filter16_d_3225_92322)">
<circle cx="520.41" cy="99.5001" r="4.5" fill="#EB376D"/>
<circle cx="520.41" cy="99.5001" r="4" stroke="white"/>
</g>
<g filter="url(#filter17_d_3225_92322)">
<circle cx="450.671" cy="97.5001" r="4.5" fill="#EB376D"/>
<circle cx="450.671" cy="97.5001" r="4" stroke="white"/>
</g>
<g filter="url(#filter18_d_3225_92322)">
<circle cx="381.959" cy="96.5001" r="4.5" fill="#EB376D"/>
<circle cx="381.959" cy="96.5001" r="4" stroke="white"/>
</g>
<g filter="url(#filter19_d_3225_92322)">
<circle cx="314.246" cy="120.5" r="4.5" fill="#FE6E1E"/>
<circle cx="314.246" cy="120.5" r="4" stroke="white"/>
</g>
<g filter="url(#filter20_d_3225_92322)">
<circle cx="244.534" cy="147.5" r="4.5" fill="#FE6E1E"/>
<circle cx="244.534" cy="147.5" r="4" stroke="white"/>
</g>
<g filter="url(#filter21_d_3225_92322)">
<circle cx="175.821" cy="132.5" r="4.5" fill="#FE6E1E"/>
<circle cx="175.821" cy="132.5" r="4" stroke="white"/>
</g>
<g filter="url(#filter22_d_3225_92322)">
<circle cx="106.108" cy="176.5" r="4.5" fill="#5BC2FF"/>
<circle cx="106.108" cy="176.5" r="4" stroke="white"/>
</g>
<g filter="url(#filter23_d_3225_92322)">
<circle cx="37.3964" cy="183.5" r="4.5" fill="#5BC2FF"/>
<circle cx="37.3964" cy="183.5" r="4" stroke="white"/>
</g>
<g>
<circle cx="727.71" cy="106.328" r="4.5" fill="#EB376D"/>
<circle cx="727.71" cy="106.328" r="4" stroke="white"/>
</g>
<defs>
<filter id="filter0_d_3225_92322" x="27.4956" y="75.7501" width="1597.8" height="122.824" filterUnits="userSpaceOnUse" color-interpolation-filters="sRGB">
<feFlood flood-opacity="0" result="BackgroundImageFix"/>
<feColorMatrix in="SourceAlpha" type="matrix" values="0 0 0 0 0 0 0 0 0 0 0 0 0 0 0 0 0 0 127 0" result="hardAlpha"/>
<feOffset dx="-2" dy="8"/>
<feGaussianBlur stdDeviation="3.5"/>
<feComposite in2="hardAlpha" operator="out"/>
<feColorMatrix type="matrix" values="0 0 0 0 0.545098 0 0 0 0 0.596078 0 0 0 0 0.933333 0 0 0 0.2 0"/>
<feBlend mode="normal" in2="BackgroundImageFix" result="effect1_dropShadow_3225_92322"/>
<feBlend mode="normal" in="SourceGraphic" in2="effect1_dropShadow_3225_92322" result="shape"/>
</filter>
<filter id="filter1_d_3225_92322" x="645.944" y="91.5001" width="29" height="29" filterUnits="userSpaceOnUse" color-interpolation-filters="sRGB">
<feFlood flood-opacity="0" result="BackgroundImageFix"/>
<feColorMatrix in="SourceAlpha" type="matrix" values="0 0 0 0 0 0 0 0 0 0 0 0 0 0 0 0 0 0 127 0" result="hardAlpha"/>
<feOffset dx="1.5" dy="1.5"/>
<feGaussianBlur stdDeviation="5"/>
<feComposite in2="hardAlpha" operator="out"/>
<feColorMatrix type="matrix" values="0 0 0 0 0.596875 0 0 0 0 0.617292 0 0 0 0 0.75 0 0 0 0.6 0"/>
<feBlend mode="normal" in2="BackgroundImageFix" result="effect1_dropShadow_3225_92322"/>
<feBlend mode="normal" in="SourceGraphic" in2="effect1_dropShadow_3225_92322" result="shape"/>
</filter>
<filter id="filter2_d_3225_92322" x="783.586" y="63.5001" width="29" height="29" filterUnits="userSpaceOnUse" color-interpolation-filters="sRGB">
<feFlood flood-opacity="0" result="BackgroundImageFix"/>
<feColorMatrix in="SourceAlpha" type="matrix" values="0 0 0 0 0 0 0 0 0 0 0 0 0 0 0 0 0 0 127 0" result="hardAlpha"/>
<feOffset dx="1.5" dy="1.5"/>
<feGaussianBlur stdDeviation="5"/>
<feComposite in2="hardAlpha" operator="out"/>
<feColorMatrix type="matrix" values="0 0 0 0 0.596875 0 0 0 0 0.617292 0 0 0 0 0.75 0 0 0 0.6 0"/>
<feBlend mode="normal" in2="BackgroundImageFix" result="effect1_dropShadow_3225_92322"/>
<feBlend mode="normal" in="SourceGraphic" in2="effect1_dropShadow_3225_92322" result="shape"/>
</filter>
<filter id="filter3_d_3225_92322" x="852.462" y="63.5001" width="29" height="29" filterUnits="userSpaceOnUse" color-interpolation-filters="sRGB">
<feFlood flood-opacity="0" result="BackgroundImageFix"/>
<feColorMatrix in="SourceAlpha" type="matrix" values="0 0 0 0 0 0 0 0 0 0 0 0 0 0 0 0 0 0 127 0" result="hardAlpha"/>
<feOffset dx="1.5" dy="1.5"/>
<feGaussianBlur stdDeviation="5"/>
<feComposite in2="hardAlpha" operator="out"/>
<feColorMatrix type="matrix" values="0 0 0 0 0.596875 0 0 0 0 0.617292 0 0 0 0 0.75 0 0 0 0.6 0"/>
<feBlend mode="normal" in2="BackgroundImageFix" result="effect1_dropShadow_3225_92322"/>
<feBlend mode="normal" in="SourceGraphic" in2="effect1_dropShadow_3225_92322" result="shape"/>
</filter>
<filter id="filter4_d_3225_92322" x="921.365" y="63.5001" width="29" height="29" filterUnits="userSpaceOnUse" color-interpolation-filters="sRGB">
<feFlood flood-opacity="0" result="BackgroundImageFix"/>
<feColorMatrix in="SourceAlpha" type="matrix" values="0 0 0 0 0 0 0 0 0 0 0 0 0 0 0 0 0 0 127 0" result="hardAlpha"/>
<feOffset dx="1.5" dy="1.5"/>
<feGaussianBlur stdDeviation="5"/>
<feComposite in2="hardAlpha" operator="out"/>
<feColorMatrix type="matrix" values="0 0 0 0 0.596875 0 0 0 0 0.617292 0 0 0 0 0.75 0 0 0 0.6 0"/>
<feBlend mode="normal" in2="BackgroundImageFix" result="effect1_dropShadow_3225_92322"/>
<feBlend mode="normal" in="SourceGraphic" in2="effect1_dropShadow_3225_92322" result="shape"/>
</filter>
<filter id="filter5_d_3225_92322" x="990.213" y="63.5001" width="29" height="29" filterUnits="userSpaceOnUse" color-interpolation-filters="sRGB">
<feFlood flood-opacity="0" result="BackgroundImageFix"/>
<feColorMatrix in="SourceAlpha" type="matrix" values="0 0 0 0 0 0 0 0 0 0 0 0 0 0 0 0 0 0 127 0" result="hardAlpha"/>
<feOffset dx="1.5" dy="1.5"/>
<feGaussianBlur stdDeviation="5"/>
<feComposite in2="hardAlpha" operator="out"/>
<feColorMatrix type="matrix" values="0 0 0 0 0.596875 0 0 0 0 0.617292 0 0 0 0 0.75 0 0 0 0.6 0"/>
<feBlend mode="normal" in2="BackgroundImageFix" result="effect1_dropShadow_3225_92322"/>
<feBlend mode="normal" in="SourceGraphic" in2="effect1_dropShadow_3225_92322" result="shape"/>
</filter>
<filter id="filter6_d_3225_92322" x="1060.09" y="63.5001" width="29" height="29" filterUnits="userSpaceOnUse" color-interpolation-filters="sRGB">
<feFlood flood-opacity="0" result="BackgroundImageFix"/>
<feColorMatrix in="SourceAlpha" type="matrix" values="0 0 0 0 0 0 0 0 0 0 0 0 0 0 0 0 0 0 127 0" result="hardAlpha"/>
<feOffset dx="1.5" dy="1.5"/>
<feGaussianBlur stdDeviation="5"/>
<feComposite in2="hardAlpha" operator="out"/>
<feColorMatrix type="matrix" values="0 0 0 0 0.596875 0 0 0 0 0.617292 0 0 0 0 0.75 0 0 0 0.6 0"/>
<feBlend mode="normal" in2="BackgroundImageFix" result="effect1_dropShadow_3225_92322"/>
<feBlend mode="normal" in="SourceGraphic" in2="effect1_dropShadow_3225_92322" result="shape"/>
</filter>
<filter id="filter7_d_3225_92322" x="1128.91" y="63.5001" width="29" height="29" filterUnits="userSpaceOnUse" color-interpolation-filters="sRGB">
<feFlood flood-opacity="0" result="BackgroundImageFix"/>
<feColorMatrix in="SourceAlpha" type="matrix" values="0 0 0 0 0 0 0 0 0 0 0 0 0 0 0 0 0 0 127 0" result="hardAlpha"/>
<feOffset dx="1.5" dy="1.5"/>
<feGaussianBlur stdDeviation="5"/>
<feComposite in2="hardAlpha" operator="out"/>
<feColorMatrix type="matrix" values="0 0 0 0 0.596875 0 0 0 0 0.617292 0 0 0 0 0.75 0 0 0 0.6 0"/>
<feBlend mode="normal" in2="BackgroundImageFix" result="effect1_dropShadow_3225_92322"/>
<feBlend mode="normal" in="SourceGraphic" in2="effect1_dropShadow_3225_92322" result="shape"/>
</filter>
<filter id="filter8_d_3225_92322" x="1197.78" y="63.5001" width="29" height="29" filterUnits="userSpaceOnUse" color-interpolation-filters="sRGB">
<feFlood flood-opacity="0" result="BackgroundImageFix"/>
<feColorMatrix in="SourceAlpha" type="matrix" values="0 0 0 0 0 0 0 0 0 0 0 0 0 0 0 0 0 0 127 0" result="hardAlpha"/>
<feOffset dx="1.5" dy="1.5"/>
<feGaussianBlur stdDeviation="5"/>
<feComposite in2="hardAlpha" operator="out"/>
<feColorMatrix type="matrix" values="0 0 0 0 0.596875 0 0 0 0 0.617292 0 0 0 0 0.75 0 0 0 0.6 0"/>
<feBlend mode="normal" in2="BackgroundImageFix" result="effect1_dropShadow_3225_92322"/>
<feBlend mode="normal" in="SourceGraphic" in2="effect1_dropShadow_3225_92322" result="shape"/>
</filter>
<filter id="filter9_d_3225_92322" x="1266.63" y="63.5001" width="29" height="29" filterUnits="userSpaceOnUse" color-interpolation-filters="sRGB">
<feFlood flood-opacity="0" result="BackgroundImageFix"/>
<feColorMatrix in="SourceAlpha" type="matrix" values="0 0 0 0 0 0 0 0 0 0 0 0 0 0 0 0 0 0 127 0" result="hardAlpha"/>
<feOffset dx="1.5" dy="1.5"/>
<feGaussianBlur stdDeviation="5"/>
<feComposite in2="hardAlpha" operator="out"/>
<feColorMatrix type="matrix" values="0 0 0 0 0.596875 0 0 0 0 0.617292 0 0 0 0 0.75 0 0 0 0.6 0"/>
<feBlend mode="normal" in2="BackgroundImageFix" result="effect1_dropShadow_3225_92322"/>
<feBlend mode="normal" in="SourceGraphic" in2="effect1_dropShadow_3225_92322" result="shape"/>
</filter>
<filter id="filter10_d_3225_92322" x="1335.56" y="63.5001" width="29" height="29" filterUnits="userSpaceOnUse" color-interpolation-filters="sRGB">
<feFlood flood-opacity="0" result="BackgroundImageFix"/>
<feColorMatrix in="SourceAlpha" type="matrix" values="0 0 0 0 0 0 0 0 0 0 0 0 0 0 0 0 0 0 127 0" result="hardAlpha"/>
<feOffset dx="1.5" dy="1.5"/>
<feGaussianBlur stdDeviation="5"/>
<feComposite in2="hardAlpha" operator="out"/>
<feColorMatrix type="matrix" values="0 0 0 0 0.596875 0 0 0 0 0.617292 0 0 0 0 0.75 0 0 0 0.6 0"/>
<feBlend mode="normal" in2="BackgroundImageFix" result="effect1_dropShadow_3225_92322"/>
<feBlend mode="normal" in="SourceGraphic" in2="effect1_dropShadow_3225_92322" result="shape"/>
</filter>
<filter id="filter11_d_3225_92322" x="1404.46" y="63.5001" width="29" height="29" filterUnits="userSpaceOnUse" color-interpolation-filters="sRGB">
<feFlood flood-opacity="0" result="BackgroundImageFix"/>
<feColorMatrix in="SourceAlpha" type="matrix" values="0 0 0 0 0 0 0 0 0 0 0 0 0 0 0 0 0 0 127 0" result="hardAlpha"/>
<feOffset dx="1.5" dy="1.5"/>
<feGaussianBlur stdDeviation="5"/>
<feComposite in2="hardAlpha" operator="out"/>
<feColorMatrix type="matrix" values="0 0 0 0 0.596875 0 0 0 0 0.617292 0 0 0 0 0.75 0 0 0 0.6 0"/>
<feBlend mode="normal" in2="BackgroundImageFix" result="effect1_dropShadow_3225_92322"/>
<feBlend mode="normal" in="SourceGraphic" in2="effect1_dropShadow_3225_92322" result="shape"/>
</filter>
<filter id="filter12_d_3225_92322" x="1473.5" y="63.5001" width="29" height="29" filterUnits="userSpaceOnUse" color-interpolation-filters="sRGB">
<feFlood flood-opacity="0" result="BackgroundImageFix"/>
<feColorMatrix in="SourceAlpha" type="matrix" values="0 0 0 0 0 0 0 0 0 0 0 0 0 0 0 0 0 0 127 0" result="hardAlpha"/>
<feOffset dx="1.5" dy="1.5"/>
<feGaussianBlur stdDeviation="5"/>
<feComposite in2="hardAlpha" operator="out"/>
<feColorMatrix type="matrix" values="0 0 0 0 0.596875 0 0 0 0 0.617292 0 0 0 0 0.75 0 0 0 0.6 0"/>
<feBlend mode="normal" in2="BackgroundImageFix" result="effect1_dropShadow_3225_92322"/>
<feBlend mode="normal" in="SourceGraphic" in2="effect1_dropShadow_3225_92322" result="shape"/>
</filter>
<filter id="filter13_d_3225_92322" x="1542.5" y="63.5001" width="29" height="29" filterUnits="userSpaceOnUse" color-interpolation-filters="sRGB">
<feFlood flood-opacity="0" result="BackgroundImageFix"/>
<feColorMatrix in="SourceAlpha" type="matrix" values="0 0 0 0 0 0 0 0 0 0 0 0 0 0 0 0 0 0 127 0" result="hardAlpha"/>
<feOffset dx="1.5" dy="1.5"/>
<feGaussianBlur stdDeviation="5"/>
<feComposite in2="hardAlpha" operator="out"/>
<feColorMatrix type="matrix" values="0 0 0 0 0.596875 0 0 0 0 0.617292 0 0 0 0 0.75 0 0 0 0.6 0"/>
<feBlend mode="normal" in2="BackgroundImageFix" result="effect1_dropShadow_3225_92322"/>
<feBlend mode="normal" in="SourceGraphic" in2="effect1_dropShadow_3225_92322" result="shape"/>
</filter>
<filter id="filter14_d_3225_92322" x="1611.5" y="63.5001" width="29" height="29" filterUnits="userSpaceOnUse" color-interpolation-filters="sRGB">
<feFlood flood-opacity="0" result="BackgroundImageFix"/>
<feColorMatrix in="SourceAlpha" type="matrix" values="0 0 0 0 0 0 0 0 0 0 0 0 0 0 0 0 0 0 127 0" result="hardAlpha"/>
<feOffset dx="1.5" dy="1.5"/>
<feGaussianBlur stdDeviation="5"/>
<feComposite in2="hardAlpha" operator="out"/>
<feColorMatrix type="matrix" values="0 0 0 0 0.596875 0 0 0 0 0.617292 0 0 0 0 0.75 0 0 0 0.6 0"/>
<feBlend mode="normal" in2="BackgroundImageFix" result="effect1_dropShadow_3225_92322"/>
<feBlend mode="normal" in="SourceGraphic" in2="effect1_dropShadow_3225_92322" result="shape"/>
</filter>
<filter id="filter15_d_3225_92322" x="576.15" y="88.5001" width="29" height="29" filterUnits="userSpaceOnUse" color-interpolation-filters="sRGB">
<feFlood flood-opacity="0" result="BackgroundImageFix"/>
<feColorMatrix in="SourceAlpha" type="matrix" values="0 0 0 0 0 0 0 0 0 0 0 0 0 0 0 0 0 0 127 0" result="hardAlpha"/>
<feOffset dx="1.5" dy="1.5"/>
<feGaussianBlur stdDeviation="5"/>
<feComposite in2="hardAlpha" operator="out"/>
<feColorMatrix type="matrix" values="0 0 0 0 0.596875 0 0 0 0 0.617292 0 0 0 0 0.75 0 0 0 0.6 0"/>
<feBlend mode="normal" in2="BackgroundImageFix" result="effect1_dropShadow_3225_92322"/>
<feBlend mode="normal" in="SourceGraphic" in2="effect1_dropShadow_3225_92322" result="shape"/>
</filter>
<filter id="filter16_d_3225_92322" x="507.41" y="86.5001" width="29" height="29" filterUnits="userSpaceOnUse" color-interpolation-filters="sRGB">
<feFlood flood-opacity="0" result="BackgroundImageFix"/>
<feColorMatrix in="SourceAlpha" type="matrix" values="0 0 0 0 0 0 0 0 0 0 0 0 0 0 0 0 0 0 127 0" result="hardAlpha"/>
<feOffset dx="1.5" dy="1.5"/>
<feGaussianBlur stdDeviation="5"/>
<feComposite in2="hardAlpha" operator="out"/>
<feColorMatrix type="matrix" values="0 0 0 0 0.596875 0 0 0 0 0.617292 0 0 0 0 0.75 0 0 0 0.6 0"/>
<feBlend mode="normal" in2="BackgroundImageFix" result="effect1_dropShadow_3225_92322"/>
<feBlend mode="normal" in="SourceGraphic" in2="effect1_dropShadow_3225_92322" result="shape"/>
</filter>
<filter id="filter17_d_3225_92322" x="437.671" y="84.5001" width="29" height="29" filterUnits="userSpaceOnUse" color-interpolation-filters="sRGB">
<feFlood flood-opacity="0" result="BackgroundImageFix"/>
<feColorMatrix in="SourceAlpha" type="matrix" values="0 0 0 0 0 0 0 0 0 0 0 0 0 0 0 0 0 0 127 0" result="hardAlpha"/>
<feOffset dx="1.5" dy="1.5"/>
<feGaussianBlur stdDeviation="5"/>
<feComposite in2="hardAlpha" operator="out"/>
<feColorMatrix type="matrix" values="0 0 0 0 0.596875 0 0 0 0 0.617292 0 0 0 0 0.75 0 0 0 0.6 0"/>
<feBlend mode="normal" in2="BackgroundImageFix" result="effect1_dropShadow_3225_92322"/>
<feBlend mode="normal" in="SourceGraphic" in2="effect1_dropShadow_3225_92322" result="shape"/>
</filter>
<filter id="filter18_d_3225_92322" x="368.959" y="83.5001" width="29" height="29" filterUnits="userSpaceOnUse" color-interpolation-filters="sRGB">
<feFlood flood-opacity="0" result="BackgroundImageFix"/>
<feColorMatrix in="SourceAlpha" type="matrix" values="0 0 0 0 0 0 0 0 0 0 0 0 0 0 0 0 0 0 127 0" result="hardAlpha"/>
<feOffset dx="1.5" dy="1.5"/>
<feGaussianBlur stdDeviation="5"/>
<feComposite in2="hardAlpha" operator="out"/>
<feColorMatrix type="matrix" values="0 0 0 0 0.596875 0 0 0 0 0.617292 0 0 0 0 0.75 0 0 0 0.6 0"/>
<feBlend mode="normal" in2="BackgroundImageFix" result="effect1_dropShadow_3225_92322"/>
<feBlend mode="normal" in="SourceGraphic" in2="effect1_dropShadow_3225_92322" result="shape"/>
</filter>
<filter id="filter19_d_3225_92322" x="301.246" y="107.5" width="29" height="29" filterUnits="userSpaceOnUse" color-interpolation-filters="sRGB">
<feFlood flood-opacity="0" result="BackgroundImageFix"/>
<feColorMatrix in="SourceAlpha" type="matrix" values="0 0 0 0 0 0 0 0 0 0 0 0 0 0 0 0 0 0 127 0" result="hardAlpha"/>
<feOffset dx="1.5" dy="1.5"/>
<feGaussianBlur stdDeviation="5"/>
<feComposite in2="hardAlpha" operator="out"/>
<feColorMatrix type="matrix" values="0 0 0 0 0.596875 0 0 0 0 0.617292 0 0 0 0 0.75 0 0 0 0.6 0"/>
<feBlend mode="normal" in2="BackgroundImageFix" result="effect1_dropShadow_3225_92322"/>
<feBlend mode="normal" in="SourceGraphic" in2="effect1_dropShadow_3225_92322" result="shape"/>
</filter>
<filter id="filter20_d_3225_92322" x="231.534" y="134.5" width="29" height="29" filterUnits="userSpaceOnUse" color-interpolation-filters="sRGB">
<feFlood flood-opacity="0" result="BackgroundImageFix"/>
<feColorMatrix in="SourceAlpha" type="matrix" values="0 0 0 0 0 0 0 0 0 0 0 0 0 0 0 0 0 0 127 0" result="hardAlpha"/>
<feOffset dx="1.5" dy="1.5"/>
<feGaussianBlur stdDeviation="5"/>
<feComposite in2="hardAlpha" operator="out"/>
<feColorMatrix type="matrix" values="0 0 0 0 0.596875 0 0 0 0 0.617292 0 0 0 0 0.75 0 0 0 0.6 0"/>
<feBlend mode="normal" in2="BackgroundImageFix" result="effect1_dropShadow_3225_92322"/>
<feBlend mode="normal" in="SourceGraphic" in2="effect1_dropShadow_3225_92322" result="shape"/>
</filter>
<filter id="filter21_d_3225_92322" x="162.821" y="119.5" width="29" height="29" filterUnits="userSpaceOnUse" color-interpolation-filters="sRGB">
<feFlood flood-opacity="0" result="BackgroundImageFix"/>
<feColorMatrix in="SourceAlpha" type="matrix" values="0 0 0 0 0 0 0 0 0 0 0 0 0 0 0 0 0 0 127 0" result="hardAlpha"/>
<feOffset dx="1.5" dy="1.5"/>
<feGaussianBlur stdDeviation="5"/>
<feComposite in2="hardAlpha" operator="out"/>
<feColorMatrix type="matrix" values="0 0 0 0 0.596875 0 0 0 0 0.617292 0 0 0 0 0.75 0 0 0 0.6 0"/>
<feBlend mode="normal" in2="BackgroundImageFix" result="effect1_dropShadow_3225_92322"/>
<feBlend mode="normal" in="SourceGraphic" in2="effect1_dropShadow_3225_92322" result="shape"/>
</filter>
<filter id="filter22_d_3225_92322" x="93.1083" y="163.5" width="29" height="29" filterUnits="userSpaceOnUse" color-interpolation-filters="sRGB">
<feFlood flood-opacity="0" result="BackgroundImageFix"/>
<feColorMatrix in="SourceAlpha" type="matrix" values="0 0 0 0 0 0 0 0 0 0 0 0 0 0 0 0 0 0 127 0" result="hardAlpha"/>
<feOffset dx="1.5" dy="1.5"/>
<feGaussianBlur stdDeviation="5"/>
<feComposite in2="hardAlpha" operator="out"/>
<feColorMatrix type="matrix" values="0 0 0 0 0.596875 0 0 0 0 0.617292 0 0 0 0 0.75 0 0 0 0.6 0"/>
<feBlend mode="normal" in2="BackgroundImageFix" result="effect1_dropShadow_3225_92322"/>
<feBlend mode="normal" in="SourceGraphic" in2="effect1_dropShadow_3225_92322" result="shape"/>
</filter>
<filter id="filter23_d_3225_92322" x="24.3964" y="170.5" width="29" height="29" filterUnits="userSpaceOnUse" color-interpolation-filters="sRGB">
<feFlood flood-opacity="0" result="BackgroundImageFix"/>
<feColorMatrix in="SourceAlpha" type="matrix" values="0 0 0 0 0 0 0 0 0 0 0 0 0 0 0 0 0 0 127 0" result="hardAlpha"/>
<feOffset dx="1.5" dy="1.5"/>
<feGaussianBlur stdDeviation="5"/>
<feComposite in2="hardAlpha" operator="out"/>
<feColorMatrix type="matrix" values="0 0 0 0 0.596875 0 0 0 0 0.617292 0 0 0 0 0.75 0 0 0 0.6 0"/>
<feBlend mode="normal" in2="BackgroundImageFix" result="effect1_dropShadow_3225_92322"/>
<feBlend mode="normal" in="SourceGraphic" in2="effect1_dropShadow_3225_92322" result="shape"/>
</filter>
<filter id="filter24_d_3225_92322" x="673.02" y="31.0001" width="140.705" height="121.989" filterUnits="userSpaceOnUse" color-interpolation-filters="sRGB">
<feFlood flood-opacity="0" result="BackgroundImageFix"/>
<feColorMatrix in="SourceAlpha" type="matrix" values="0 0 0 0 0 0 0 0 0 0 0 0 0 0 0 0 0 0 127 0" result="hardAlpha"/>
<feMorphology radius="10" operator="erode" in="SourceAlpha" result="effect1_dropShadow_3225_92322"/>
<feOffset dx="15" dy="20"/>
<feGaussianBlur stdDeviation="25"/>
<feComposite in2="hardAlpha" operator="out"/>
<feColorMatrix type="matrix" values="0 0 0 0 0.920833 0 0 0 0 0.214861 0 0 0 0 0.426653 0 0 0 0.3 0"/>
<feBlend mode="normal" in2="BackgroundImageFix" result="effect1_dropShadow_3225_92322"/>
<feBlend mode="normal" in="SourceGraphic" in2="effect1_dropShadow_3225_92322" result="shape"/>
</filter>
<filter id="filter25_d_3225_92322" x="712.71" y="91.5001" width="36" height="35.656" filterUnits="userSpaceOnUse" color-interpolation-filters="sRGB">
<feFlood flood-opacity="0" result="BackgroundImageFix"/>
<feColorMatrix in="SourceAlpha" type="matrix" values="0 0 0 0 0 0 0 0 0 0 0 0 0 0 0 0 0 0 127 0" result="hardAlpha"/>
<feOffset dx="3" dy="3"/>
<feGaussianBlur stdDeviation="5.75"/>
<feComposite in2="hardAlpha" operator="out"/>
<feColorMatrix type="matrix" values="0 0 0 0 0.708333 0 0 0 0 0.409653 0 0 0 0 0.368924 0 0 0 0.6 0"/>
<feBlend mode="normal" in2="BackgroundImageFix" result="effect1_dropShadow_3225_92322"/>
<feBlend mode="normal" in="SourceGraphic" in2="effect1_dropShadow_3225_92322" result="shape"/>
</filter>
</defs>
</svg>
