<svg width="57" height="57" viewBox="0 0 57 57" fill="none" xmlns="http://www.w3.org/2000/svg">
<rect opacity="0.2" width="57" height="57" rx="28.5" fill="#5BC2FF"/>
<mask id="mask0_5051_121442" style="mask-type:alpha" maskUnits="userSpaceOnUse" x="0" y="0" width="57" height="57">
<rect width="57" height="57" rx="28.5" fill="#53F0B8"/>
</mask>
<g mask="url(#mask0_5051_121442)">
<path d="M21 49C21 37.9543 29.9543 29 41 29C52.0457 29 61 37.9543 61 49C61 60.0457 52.0457 69 41 69C29.9543 69 21 60.0457 21 49Z" fill="#5BC2FF"/>
<path d="M7.5 29C7.5 19.8873 14.8873 12.5 24 12.5C33.1127 12.5 40.5 19.8873 40.5 29C40.5 38.1127 33.1127 45.5 24 45.5C14.8873 45.5 7.5 38.1127 7.5 29Z" stroke="white"/>
<g filter="url(#filter0_i_5051_121442)">
<path d="M18 12C18 4.26801 24.268 -2 32 -2C39.732 -2 46 4.26801 46 12C46 19.732 39.732 26 32 26C24.268 26 18 19.732 18 12Z" fill="url(#paint0_linear_5051_121442)"/>
<path d="M18 12C18 4.26801 24.268 -2 32 -2C39.732 -2 46 4.26801 46 12C46 19.732 39.732 26 32 26C24.268 26 18 19.732 18 12Z" fill="white" fill-opacity="0.1"/>
</g>
</g>
<defs>
<filter id="filter0_i_5051_121442" x="18" y="-2" width="32" height="32" filterUnits="userSpaceOnUse" color-interpolation-filters="sRGB">
<feFlood flood-opacity="0" result="BackgroundImageFix"/>
<feBlend mode="normal" in="SourceGraphic" in2="BackgroundImageFix" result="shape"/>
<feColorMatrix in="SourceAlpha" type="matrix" values="0 0 0 0 0 0 0 0 0 0 0 0 0 0 0 0 0 0 127 0" result="hardAlpha"/>
<feOffset dx="4" dy="4"/>
<feGaussianBlur stdDeviation="9"/>
<feComposite in2="hardAlpha" operator="arithmetic" k2="-1" k3="1"/>
<feColorMatrix type="matrix" values="0 0 0 0 1 0 0 0 0 1 0 0 0 0 1 0 0 0 0.5 0"/>
<feBlend mode="normal" in2="shape" result="effect1_innerShadow_5051_121442"/>
</filter>
<linearGradient id="paint0_linear_5051_121442" x1="26" y1="4" x2="31.2937" y2="26.1687" gradientUnits="userSpaceOnUse">
<stop stop-color="#5BC2FF"/>
<stop offset="1" stop-color="#2A8CC6"/>
</linearGradient>
</defs>
</svg>
