<svg width="33" height="33" viewBox="0 0 33 33" fill="none" xmlns="http://www.w3.org/2000/svg">
<rect opacity="0.25" width="33" height="33" rx="10" fill="#87D449"/>
<mask id="mask0_3172_274148" style="mask-type:alpha" maskUnits="userSpaceOnUse" x="0" y="0" width="33" height="33">
<rect width="33" height="33" rx="10" fill="#53F0B8"/>
</mask>
<g mask="url(#mask0_3172_274148)">
<path d="M17.9474 25.4738C17.9474 19.7184 22.613 15.0527 28.3684 15.0527H35.3158C41.0712 15.0527 45.7368 19.7184 45.7368 25.4738C45.7368 31.2292 41.0712 35.8948 35.3158 35.8948H28.3684C22.613 35.8948 17.9474 31.2292 17.9474 25.4738Z" fill="#6ABE27"/>
<path d="M17.9474 25.4738C17.9474 19.7184 22.613 15.0527 28.3684 15.0527H35.3158C41.0712 15.0527 45.7368 19.7184 45.7368 25.4738C45.7368 31.2292 41.0712 35.8948 35.3158 35.8948H28.3684C22.613 35.8948 17.9474 31.2292 17.9474 25.4738Z" fill="white" fill-opacity="0.1"/>
<g filter="url(#filter0_i_3172_274148)">
<path d="M-4.63158 8.68408H7.57895C15.8632 8.68408 22.5789 15.3998 22.5789 23.6841V34.7367H-4.63158V8.68408Z" fill="url(#paint0_linear_3172_274148)"/>
<path d="M-4.63158 8.68408H7.57895C15.8632 8.68408 22.5789 15.3998 22.5789 23.6841V34.7367H-4.63158V8.68408Z" fill="white" fill-opacity="0.1"/>
</g>
<path d="M16.1418 30.8976C16.1418 25.2919 20.6861 20.7476 26.2918 20.7476H28.6918C34.2974 20.7476 38.8418 25.2919 38.8418 30.8976C38.8418 36.5032 34.2974 41.0476 28.6918 41.0476H26.2917C20.6861 41.0476 16.1418 36.5032 16.1418 30.8976Z" stroke="white"/>
</g>
<defs>
<filter id="filter0_i_3172_274148" x="-4.63158" y="8.68408" width="31.2105" height="30.0527" filterUnits="userSpaceOnUse" color-interpolation-filters="sRGB">
<feFlood flood-opacity="0" result="BackgroundImageFix"/>
<feBlend mode="normal" in="SourceGraphic" in2="BackgroundImageFix" result="shape"/>
<feColorMatrix in="SourceAlpha" type="matrix" values="0 0 0 0 0 0 0 0 0 0 0 0 0 0 0 0 0 0 127 0" result="hardAlpha"/>
<feOffset dx="4" dy="4"/>
<feGaussianBlur stdDeviation="9"/>
<feComposite in2="hardAlpha" operator="arithmetic" k2="-1" k3="1"/>
<feColorMatrix type="matrix" values="0 0 0 0 1 0 0 0 0 1 0 0 0 0 1 0 0 0 0.5 0"/>
<feBlend mode="normal" in2="shape" result="effect1_innerShadow_3172_274148"/>
</filter>
<linearGradient id="paint0_linear_3172_274148" x1="11.7292" y1="15.4724" x2="8.61145" y2="34.6779" gradientUnits="userSpaceOnUse">
<stop stop-color="#87D449"/>
<stop offset="1" stop-color="#7ACD37"/>
</linearGradient>
</defs>
</svg>
