<svg width="8" height="11" viewBox="0 0 8 11" fill="none" xmlns="http://www.w3.org/2000/svg">
<g id="vuesax/bold/frame">
<g id="frame">
<path id="Vector" d="M3.84509 0C2.41369 0 1.25 1.16369 1.25 2.59509C1.25 3.99916 2.34813 5.13554 3.77953 5.18471C3.82323 5.17925 3.86694 5.17925 3.89972 5.18471C3.91065 5.18471 3.91611 5.18471 3.92704 5.18471C3.9325 5.18471 3.9325 5.18471 3.93796 5.18471C5.33658 5.13554 6.43471 3.99916 6.44017 2.59509C6.44017 1.16369 5.27648 0 3.84509 0Z" fill="#8B98EE"/>
<path id="Vector_2" d="M6.62157 6.63512C5.0973 5.61894 2.61148 5.61894 1.07628 6.63512C0.382434 7.09951 0 7.72779 0 8.39978C0 9.07177 0.382434 9.69459 1.07081 10.1535C1.83568 10.6671 2.84094 10.9238 3.84619 10.9238C4.85145 10.9238 5.8567 10.6671 6.62157 10.1535C7.30995 9.68913 7.69238 9.06631 7.69238 8.38885C7.68692 7.71686 7.30995 7.09404 6.62157 6.63512Z" fill="#8B98EE"/>
</g>
</g>
</svg>
