<svg width="13" height="15" viewBox="0 0 13 15" fill="none" xmlns="http://www.w3.org/2000/svg">
<g id="&#208;&#184;&#208;&#186;&#208;&#190;&#208;&#189;&#208;&#186;&#208;&#176; &#209;&#129;&#209;&#128;&#208;&#181;&#208;&#180;&#208;&#189;&#208;&#181;&#208;&#181; &#208;&#183;&#208;&#189;&#208;&#176;&#209;&#135;&#208;&#181;&#208;&#189;&#208;&#184;&#208;&#181;">
<g id="&#209;&#129;&#209;&#128;&#208;&#181;&#208;&#180;&#208;&#189;&#208;&#181;&#208;&#181;">
<path id="Polygon 2" d="M10.8523 6.53385C11.2821 6.78197 11.2821 7.40227 10.8523 7.65038L2.14984 12.6748C1.72009 12.9229 1.1829 12.6127 1.1829 12.1165L1.1829 2.06774C1.1829 1.57151 1.72009 1.26136 2.14984 1.50948L10.8523 6.53385Z" stroke="#FE85D5" stroke-width="1.87778"/>
<mask id="mask0_3224_79412" style="mask-type:alpha" maskUnits="userSpaceOnUse" x="1" y="1" width="11" height="12">
<path id="Polygon 3" d="M10.7717 6.67342C11.0941 6.85951 11.0941 7.32473 10.7717 7.51082L2.06926 12.5352C1.74695 12.7213 1.34406 12.4887 1.34406 12.1165L1.34406 2.06774C1.34406 1.69557 1.74695 1.46296 2.06926 1.64904L10.7717 6.67342Z" fill="#D9D9D9" stroke="#A1B1C5" stroke-width="0.322314"/>
</mask>
<g mask="url(#mask0_3224_79412)">
<rect id="Rectangle 188" x="0.162134" y="7.25482" width="11.4959" height="5.58678" fill="#FE85D5" stroke="#FE85D5" stroke-width="0.322314"/>
</g>
</g>
</g>
</svg>
