<svg width="10" height="12" viewBox="0 0 10 12" fill="none" xmlns="http://www.w3.org/2000/svg">
<g id="&#208;&#184;&#208;&#186;&#208;&#190;&#208;&#189;&#208;&#186;&#208;&#176; &#209;&#129;&#209;&#128;&#208;&#181;&#208;&#180;&#208;&#189;&#208;&#181;&#208;&#181; &#208;&#183;&#208;&#189;&#208;&#176;&#209;&#135;&#208;&#181;&#208;&#189;&#208;&#184;&#208;&#181;">
<g id="&#209;&#129;&#209;&#128;&#208;&#181;&#208;&#180;&#208;&#189;&#208;&#181;&#208;&#181;">
<path id="Polygon 2" d="M8.09158 5.79631C8.41199 5.9813 8.41199 6.44377 8.09158 6.62876L1.60329 10.3748C1.28288 10.5598 0.882371 10.3285 0.882372 9.95855L0.882372 2.46652C0.882372 2.09654 1.28288 1.86531 1.60329 2.0503L8.09158 5.79631Z" stroke="#8B98EE" stroke-width="1.40001"/>
<mask id="mask0_4357_87703" style="mask-type:alpha" maskUnits="userSpaceOnUse" x="0" y="1" width="9" height="10">
<path id="Polygon 3" d="M8.0315 5.90037C8.27181 6.03911 8.27181 6.38596 8.0315 6.5247L1.54322 10.2707C1.30291 10.4095 1.00252 10.236 1.00252 9.95855L1.00253 2.46652C1.00253 2.18904 1.30291 2.01561 1.54322 2.15435L8.0315 5.90037Z" fill="#D9D9D9" stroke="#A1B1C5" stroke-width="0.240307"/>
</mask>
<g mask="url(#mask0_4357_87703)">
<rect id="Rectangle 188" x="0.12113" y="6.33304" width="8.57095" height="4.16532" fill="#8B98EE" stroke="#8B98EE" stroke-width="0.240307"/>
</g>
</g>
</g>
</svg>
