<svg width="24" height="30" viewBox="0 0 24 30" fill="none" xmlns="http://www.w3.org/2000/svg">
<g clip-path="url(#clip0_3635_218275)">
<path d="M16.2517 6.6342L15.4058 6.85802L14.4146 3.11192C14.2204 2.37779 13.4678 1.94013 12.7337 2.13437C11.9996 2.32861 11.5619 3.0812 11.7561 3.81533L12.7473 7.56142L8.63867 8.64851L7.64751 4.90241C7.45327 4.16829 6.70067 3.73062 5.96654 3.92486C5.23242 4.1191 4.79475 4.87169 4.98899 5.60582L5.98015 9.35192L5.13426 9.57573C4.68557 9.69444 4.30242 9.98654 4.0691 10.3878C3.83577 10.789 3.77138 11.2664 3.8901 11.7151L5.23297 16.7905C5.67146 18.4366 6.69468 19.8666 8.1112 20.8128C9.52771 21.7591 11.2405 22.1569 12.929 21.9317L13.9359 25.737C14.1301 26.4712 14.8827 26.9088 15.6168 26.7146C16.351 26.5204 16.7886 25.7678 16.5944 25.0336L15.5876 21.2283C17.1665 20.5889 18.4585 19.3962 19.2216 17.8732C19.9848 16.3502 20.1669 14.6013 19.734 12.9537L18.3911 7.87837C18.2724 7.42968 17.9803 7.04653 17.5791 6.8132C17.1779 6.57987 16.7004 6.51549 16.2517 6.6342Z" fill="#FE85D5"/>
</g>
<defs>
<clipPath id="clip0_3635_218275">
<rect width="16" height="26" fill="white" transform="translate(0.940918 4.47873) rotate(-14.8201)"/>
</clipPath>
</defs>
</svg>
